<svg width="20px" height="20px" viewBox="0 0 20 20" enable-background="new 0 0 20 20" xml:space="preserve">
<circle fill="#FFFFFF" cx="10.166" cy="10.292" r="2.451"/>
<path fill="#FFFFFF" d="M6.292,6.418c2.139-2.14,5.609-2.142,7.747-0.002c2.143,2.139,2.143,5.607,0.005,7.747
	c-2.14,2.142-5.607,2.142-7.748,0.002C4.154,12.027,4.154,8.56,6.292,6.418 M4.926,5.052c-1.401,1.401-2.172,3.262-2.172,5.24
	c0,1.979,0.771,3.842,2.172,5.244c1.403,1.398,3.262,2.17,5.244,2.17c1.965,0.002,3.852-0.776,5.239-2.17
	c1.396-1.39,2.177-3.276,2.173-5.244c-0.006-4.09-3.319-7.407-7.412-7.414C8.202,2.874,6.314,3.656,4.926,5.052z"/>
<g>
	<path fill="#FFFFFF" d="M3.829,8.035L3.828,12.55l-2.579-0.376l0.002-3.762L3.829,8.035z M19.085,8.415v3.759l-2.578,0.376V8.038
		L19.085,8.415z"/>
</g>
<g>
	<path fill="#FFFFFF" d="M7.912,16.632h4.512l-0.376,2.577H8.285L7.912,16.632z M8.286,1.375h3.762l0.376,2.579L7.912,3.957
		L8.286,1.375z"/>
</g>
<g>
	<path fill="#FFFFFF" d="M4.091,13.178l3.191,3.194L5.19,17.927l-2.655-2.66L4.091,13.178z M15.145,2.659l2.656,2.658l-1.555,2.087
		l-3.19-3.191L15.145,2.659z"/>
</g>
<g>
	<path fill="#FFFFFF" d="M13.051,16.372l3.194-3.19l1.556,2.089l-2.66,2.656L13.051,16.372z M2.533,5.316l2.655-2.658l2.09,1.557
		L4.087,7.407L2.533,5.316z"/>
</g>
</svg>
