<svg xmlns="http://www.w3.org/2000/svg" width="60" height="60"><path fill="#FFF" d="M6.417 52.685A1.416 1.416 0 0 1 5 51.268V8.733a1.417 1.417 0 1 1 2.835 0v42.534a1.417 1.417 0 0 1-1.418 1.418zM40.441 52.685a1.418 1.418 0 0 1-1.419-1.417V8.733a1.418 1.418 0 0 1 2.836 0v42.534c0 .783-.632 1.418-1.417 1.418z"/><path fill="#FFF" d="M40.441 10.151H6.417C5.633 10.151 5 9.517 5 8.733s.633-1.418 1.417-1.418h34.024c.784 0 1.417.635 1.417 1.418s-.632 1.418-1.417 1.418zM40.441 52.685H6.417a1.416 1.416 0 1 1 0-2.835h34.024a1.417 1.417 0 1 1 0 2.835zM14.206 18.106h2.725v2.726h-2.725zM19.438 18.106h2.724v2.726h-2.724zM24.669 18.106h2.725v2.726h-2.725zM29.901 18.106h2.725v2.726h-2.725zM14.206 23.338h2.725v2.726h-2.725zM19.438 23.338h2.724v2.726h-2.724zM24.669 23.338h2.725v2.726h-2.725zM29.901 23.338h2.725v2.726h-2.725zM14.206 28.569h2.725v2.726h-2.725zM19.438 28.569h2.724v2.726h-2.724zM24.669 28.569h2.725v2.726h-2.725zM29.901 28.569h2.725v2.726h-2.725z"/><g><path fill="none" stroke="#FFF" stroke-width="2" stroke-miterlimit="10" d="M19.28 43.181h8.299v7.6H19.28z"/></g><g><path fill="#FFF" d="M14.206 33.801h2.725v2.727h-2.725zM19.438 33.801h2.724v2.727h-2.724zM24.669 33.801h2.725v2.727h-2.725zM29.901 33.801h2.725v2.727h-2.725z"/></g><g><path fill="#FFF" d="M41.228 52.685a1.418 1.418 0 0 1-1.418-1.417V36.173a1.418 1.418 0 0 1 2.836 0v15.095c0 .782-.634 1.417-1.418 1.417z"/></g><g><path fill="#FFF" d="M53.583 52.685a1.418 1.418 0 0 1-1.419-1.417V35.823a1.419 1.419 0 0 1 2.836 0v15.444c0 .783-.634 1.418-1.417 1.418z"/></g><g><path fill="#FFF" d="M53.583 37.242H41.228a1.418 1.418 0 0 1 0-2.837h12.355a1.418 1.418 0 0 1 0 2.837z"/></g><g><path fill="#FFF" d="M53.214 52.685H41.228a1.418 1.418 0 1 1 0-2.835h11.986a1.417 1.417 0 1 1 0 2.835z"/></g><g><path fill="#FFF" d="M45.332 39.367h1.576v1.575h-1.576zM48.358 39.367h1.577v1.575h-1.577zM45.332 42.393h1.576v1.577h-1.576zM48.358 42.393h1.577v1.577h-1.577z"/><g><path fill="#FFF" d="M45.332 45.109h1.576v1.577h-1.576zM48.358 45.109h1.577v1.577h-1.577z"/></g></g></svg>