<svg xmlns="http://www.w3.org/2000/svg" width="200" height="44.356" viewBox="152.5 33.822 200 44.356">
  <g fill="#FFF">
    <path d="M260.605 59.832c-1.998 0-3.064.445-3.064 1.39 0 .927 1.066 1.372 3.064 1.372 1.981 0 3.048-.445 3.048-1.372 0-.945-1.066-1.39-3.048-1.39z"/>
    <path d="M152.5 33.822v44.356h200V33.822h-200zm93.749 27.221c-1.76-.908-2.963-2.602-3.64-4.65-.661 2.209-1.879 4.027-3.674 4.972l-1.245-1.854c2.607-1.282 3.919-4.437 3.919-7.485v-.778h-3.168v-1.98h8.317v1.98h-3.168v.778c0 2.887 1.296 5.917 3.887 7.165l-1.228 1.852zm4.865 3.273h-2.376v-8.712h-2.772v-1.98h2.772v-5.94h2.376v16.632zm2.092-8.386c2.523-.891 3.641-3.098 3.675-5.078h-2.995v-1.98h8.317v1.98h-3.037c.034 1.98 1.101 3.759 3.556 4.525l-1.066 1.844c-1.71-.534-2.896-1.607-3.572-2.962-.693 1.622-1.93 2.902-3.758 3.526l-1.12-1.855zm7.399 8.464c-3.251 0-5.283-1.176-5.283-3.172 0-2.014 2.032-3.208 5.283-3.208 3.234 0 5.267 1.194 5.267 3.208 0 1.997-2.032 3.172-5.267 3.172zm7.142-10.77h-1.979v3.96h-2.377v-9.901h2.377v3.96h1.979v1.981z"/>
  </g>
</svg>
