<svg xmlns="http://www.w3.org/2000/svg" width="65" height="65"><g fill="#FFF"><path d="M32.339 12.649c-6.314 0-11.45 5.137-11.45 11.449 0 6.314 5.136 11.451 11.45 11.451 6.313 0 11.449-5.137 11.449-11.451.001-6.312-5.136-11.449-11.449-11.449z"/><path d="M32.5 0C14.551 0 0 14.551 0 32.5S14.551 65 32.5 65 65 50.449 65 32.5 50.449 0 32.5 0zM35 40.66V44h8v6h-8v8h-5v-8h-8v-6h8v-3.34c-8-1.286-14.315-8.212-14.315-16.562 0-9.26 7.391-16.793 16.651-16.793 9.259 0 16.817 7.533 16.817 16.793C49.153 32.448 43 39.374 35 40.66z"/></g></svg>