<svg xmlns="http://www.w3.org/2000/svg" width="114" height="130"><g fill="#FFF"><path d="M47.753 53.424v2.76H21.77v-2.76h25.983zm-6.615-16.851H24.536v-2.694h19.877v3.149c0 3.929 0 8.052-1.081 14.253l-3.308-.357c1.113-5.779 1.113-10.097 1.113-13.896v-.455zM71.135 44.723c-4.803.974-9.128 1.266-13.326 1.266h-2.322V32.678h3.277V43.23c3.753-.065 7.728-.357 11.99-1.202l.381 2.695zm5.819 9.771c0 3.571-3.784 5.813-9.604 5.813-5.82 0-9.605-2.241-9.605-5.813 0-3.636 3.785-5.844 9.605-5.844s9.604 2.208 9.604 5.844zm-3.243 0c0-2.013-2.449-3.181-6.36-3.181-3.912 0-6.361 1.168-6.361 3.181 0 1.948 2.449 3.149 6.361 3.149 3.911.001 6.36-1.201 6.36-3.149zm2.958-16.686v3.474h3.975v2.76h-3.975v4.22H73.36V30.925h3.309v4.123h3.975v2.76h-3.975zM86.724 62.156c2.163-.908 3.436-2.532 3.467-4.447-.127.032-.223.032-.35.032-1.305 0-2.449-.844-2.449-2.402 0-1.461 1.145-2.402 2.545-2.402 1.78 0 2.83 1.526 2.83 4.025 0 3.409-1.94 6.039-5.216 7.305l-.827-2.111z"/></g><g fill="#FFF"><path d="M48.279 86.787v1.008H36.258v6.719h-1.051v-6.719H22.804v-1.008h25.475zm-22.358-8.668c0-3.473 3.721-5.584 9.572-5.584 5.82 0 9.573 2.111 9.573 5.584 0 3.441-3.753 5.553-9.573 5.553-5.851 0-9.572-2.111-9.572-5.553zm1.431 20.389h18.096v1.006H26.335v-8.148h1.017v7.142zm-.382-20.389c0 2.695 3.467 4.578 8.523 4.578 5.025 0 8.523-1.883 8.523-4.578 0-2.727-3.498-4.609-8.523-4.609-5.056 0-8.523 1.883-8.523 4.609zM62.914 80.652c0 4.512 3.085 9.543 6.616 11.557l-.732.813c-2.83-1.721-5.374-5.26-6.36-9.123-.923 4.188-3.562 7.922-6.487 9.738l-.764-.811c3.562-2.045 6.741-7.207 6.741-12.174v-6.137h.986v6.137zm9.223-8.246h1.05v26.297h-1.05V83.508h-5.756v-.973h5.756V72.406zm6.743-.779v28.666h-1.05V71.627h1.05z"/></g><path fill="#FFF" d="M114 129.566H0V.434h114v129.132zM2.018 127.549h109.965V2.451H2.018v125.098z"/></svg>