<?xml version="1.0" encoding="utf-8"?>
<!-- Generator: Adobe Illustrator 16.0.0, SVG Export Plug-In . SVG Version: 6.00 Build 0)  -->
<!DOCTYPE svg PUBLIC "-//W3C//DTD SVG 1.1//EN" "http://www.w3.org/Graphics/SVG/1.1/DTD/svg11.dtd">
<svg version="1.1" id="Layer_1" xmlns="http://www.w3.org/2000/svg" xmlns:xlink="http://www.w3.org/1999/xlink" x="0px" y="0px"
	 width="120px" height="29px" viewBox="0 0 120 29" enable-background="new 0 0 120 29" xml:space="preserve">
<path fill="#FFFFFF" d="M34.563,18.918c0.922,0.049,2.232,0.193,2.814,0.391c0.219,0.07,0.34,0.241,0.34,0.461
	c0,0.461-0.316,0.897-0.583,1.02c-0.63-0.072-2.135-0.121-2.862-0.121c-1.701-0.023-12.5,0.097-13.836,0.195
	c-0.631,0.048-1.917,0.267-2.524,0.461c-0.923-0.291-1.845-0.851-2.476-1.408c-0.073-0.048-0.097-0.146-0.073-0.243l0.195-0.362
	c0.849,0.146,1.99,0.241,2.792,0.267c1.067,0.024,7.281-0.072,11.504-0.146c0.68-3.545,1.141-8.714,1.213-12.137
	c-2.039-0.023-7.233,0.072-8.398,0.146c-0.655,0.047-1.772,0.217-2.378,0.437c-0.776-0.315-1.626-0.849-2.185-1.334
	c-0.121-0.097-0.121-0.195-0.073-0.291l0.17-0.316c0.752,0.146,1.771,0.219,2.451,0.219c1.287,0,8.714-0.121,10.46-0.219
	l0.947-0.461c0.121-0.048,0.315-0.048,0.438,0c0.34,0.17,0.971,0.583,1.214,0.752c0.097,0.097,0.121,0.195,0.048,0.316l-0.363,0.897
	c-0.074,3.397-0.996,8.397-2.233,11.967c1.188-0.025,2.087-0.049,2.476-0.073L34.563,18.918L34.563,18.918z M58.98,11.564
	c0.728-0.024,1.724,0.023,2.16,0.121c0.242,0.047,0.389,0.242,0.389,0.438c0.025,0.461-0.12,0.824-0.291,0.971
	c-0.12,0.098-0.338,0.146-0.51,0.146l-4.174,0.255c-0.123,1.141-0.342,1.977-0.584,3.265h-1.215
	c-0.097-1.288-0.146-2.634-0.17-3.726c-3.252,1.043-7.525,1.741-10.461,1.983c-0.291,0.024-0.582,0.01-0.825,0.01
	c-0.922,0-1.592-0.554-1.858-1.354c-0.098-0.243-0.209-0.7-0.209-1.187V6.904c0-0.315-0.955-0.631-1.588-0.801l0.19-0.631
	c0.022-0.121,0.144-0.17,0.289-0.17c0.849,0,2.341,0.097,2.996,0.243c0.243,0.048,0.217,0.219,0.217,0.51l-0.172,1.189v5.583
	c0,0.291,0.36,0.413,0.677,0.413c2.864-0.049,7.699-0.631,10.92-1.481V4.307c-0.644-0.51-1.252-0.971-2.102-1.262l0.174-0.679
	c0.023-0.097,0.076-0.122,0.27-0.122c0.973,0.024,2.563,0.364,3.291,0.656c0.219,0.097,0.345,0.267,0.319,0.534l-0.019,1.311v2.597
	l1.543-0.048l0.759-0.486c0.729-0.024,1.715,0.024,2.151,0.122c0.242,0.072,0.385,0.243,0.385,0.461
	c0.023,0.438-0.124,0.825-0.294,0.946c-0.138,0.106-0.304,0.165-0.478,0.17L56.693,8.58v3.52l1.543-0.072L58.98,11.564L58.98,11.564
	z M56.723,20.714c0,2.767-2.281,4.61-5.314,4.61c-3.059,0-5.34-1.844-5.34-4.61c0-2.646,2.281-4.416,5.34-4.416
	C54.441,16.297,56.723,18.068,56.723,20.714z M54.611,20.714c0-1.867-1.383-3.01-3.203-3.01c-1.846,0-3.205,1.142-3.205,3.01
	c0,1.869,1.359,2.985,3.205,2.985C53.229,23.697,54.611,22.583,54.611,20.714z M64.809,23.093c-0.681-0.485-0.973-1.166-0.973-1.771
	c0-0.899,0.559-1.627,1.555-1.627c0.485,0,0.994,0.17,1.576,0.729c0.221,0.631,0.292,1.189,0.292,1.869
	c0,3.082-2.452,5.559-4.88,6.529l-0.361-0.776c1.866-0.947,3.228-2.161,3.81-4.175L64.809,23.093z M95.658,13.771
	c0.923,0.049,2.232,0.219,2.814,0.414c0.219,0.047,0.34,0.217,0.34,0.437c0,0.461-0.314,0.897-0.582,1.021
	c-0.631-0.074-2.125-0.121-2.854-0.121c-0.801,0-3.893,0-6.47,0.047v1.457c0,1.189-0.265,2.955-0.604,4.244h-1.262
	c-0.122-0.645-0.066-2.738-0.066-3.686v-1.991c-2.578,0.022-4.834,0.072-5.394,0.121c-0.631,0.049-1.942,0.291-2.55,0.485
	c-0.906-0.32-1.748-0.797-2.489-1.408c-0.071-0.068-0.102-0.17-0.079-0.266l0.191-0.365c0.849,0.17,1.988,0.267,2.789,0.267
	c1.529,0.024,13.592-0.121,15.291-0.241L95.658,13.771L95.658,13.771z M92.479,23.093c0.754,0,1.894,0.072,2.379,0.194
	c0.193,0.023,0.34,0.17,0.34,0.363c0,0.533-0.17,0.873-0.29,1.02c-0.105,0.079-0.233,0.121-0.365,0.121L83.936,24.84
	c-1.603,0-2.112-0.605-2.112-1.966v-3.035c-0.646-0.313-1.115-0.606-1.771-0.752l0.11-0.606c0.023-0.097,0.079-0.17,0.248-0.17
	c0.874,0,2.369,0.098,3.025,0.242c0.242,0.073,0.379,0.219,0.379,0.51l-0.06,1.166v2.768c0,0.438,0.151,0.631,0.588,0.631
	c1.603,0.023,5.806-0.023,7.31-0.073L92.479,23.093z M81.799,8.165c0-2.718,2.428-4.587,5.776-4.587c3.35,0,5.778,1.869,5.778,4.587
	c0,2.694-2.43,4.539-5.778,4.539S81.799,10.859,81.799,8.165z M83.861,8.165c0,2.015,1.602,3.205,3.714,3.205s3.69-1.19,3.69-3.205
	c0-2.039-1.578-3.252-3.69-3.252S83.861,6.127,83.861,8.165z M110.516,15.423c0.314,0.534,0.703,1.383,0.849,1.845
	c0.12,0.363,0.12,0.582,0.022,0.729c-0.17,0.314-0.654,0.461-0.945,0.314c-0.146-0.072-0.363-0.291-0.51-0.484l-3.545-4.66
	c-1.311,2.063-3.104,4.054-5.363,5.777c-0.096,0.071-0.194,0.097-0.291,0.023l-0.34-0.314c-0.072-0.049-0.072-0.146,0.049-0.244
	c3.084-3.229,5.195-7.207,5.802-10.582c-0.22-0.363-0.802-0.849-1.384-1.141l0.315-0.606c0.048-0.097,0.121-0.146,0.291-0.121
	c0.946,0.146,2.281,0.558,2.839,0.874c0.195,0.121,0.315,0.267,0.315,0.51c0.024,0.194,0,0.413-0.048,0.559
	c-0.295,1.416-0.795,2.781-1.481,4.054l2.501,3.009L110.516,15.423z M112.143,4.112c0.021-0.097,0.121-0.146,0.313-0.146
	c0.825,0.024,2.233,0.339,2.864,0.63c0.193,0.073,0.171,0.243,0.171,0.486l-0.168,1.117V18.99c0,1.384-0.052,3.566-0.44,4.854
	h-1.092c-0.121-0.646-0.4-3.181-0.4-4.2v-7.16c0,0-0.951,0.049-1.244,0.074c-0.479,0.063-0.947,0.186-1.397,0.363
	c-0.631-0.292-1.161-0.68-1.622-1.068c-0.097-0.097-0.107-0.17-0.059-0.267l0.176-0.269c0.559,0.05,1.15,0.074,1.759,0.074
	c0.581,0,1.743-0.024,2.388-0.049V5.859c0-0.437-0.879-0.849-1.584-1.116L112.143,4.112L112.143,4.112z M116.363,2.388
	c0.049-0.121,0.119-0.146,0.314-0.146c0.873,0.024,2.428,0.34,3.082,0.631c0.243,0.097,0.254,0.267,0.23,0.534l-0.159,1.214v15.801
	c0,1.408-0.095,4.066-0.508,5.355h-1.116c-0.122-1.289-0.311-3.633-0.311-4.7V4.234c0-0.486-1.032-0.923-1.813-1.214L116.363,2.388
	L116.363,2.388z M0,0.008h3.221V29H0V0.008z"/>
</svg>
