<svg xmlns="http://www.w3.org/2000/svg" width="65" height="65"><path fill="#FFF" d="M36 10v6h9.28l-7.551 7.376c-2.979-2.16-6.54-3.431-10.292-3.431-4.7 0-9.117 1.785-12.44 5.109-6.859 6.861-6.861 18.004-.002 24.865 3.323 3.322 7.742 5.143 12.442 5.143a17.48 17.48 0 0 0 12.441-5.161c6.187-6.186 6.657-15.862 1.687-22.735L49 19.609V29h6V10H36zm-.081 35.938c-2.267 2.266-5.278 3.514-8.482 3.514s-6.218-1.246-8.483-3.512c-4.677-4.68-4.676-12.293 0-16.971a11.919 11.919 0 0 1 8.483-3.512c3.206 0 6.218 1.246 8.482 3.512 4.679 4.677 4.679 12.291 0 16.969z"/></svg>