<?xml version="1.0" encoding="utf-8"?>
<!-- Generator: Adobe Illustrator 16.0.0, SVG Export Plug-In . SVG Version: 6.00 Build 0)  -->
<!DOCTYPE svg PUBLIC "-//W3C//DTD SVG 1.1//EN" "http://www.w3.org/Graphics/SVG/1.1/DTD/svg11.dtd">
<svg version="1.1" id="Layer_1" xmlns="http://www.w3.org/2000/svg" xmlns:xlink="http://www.w3.org/1999/xlink" x="0px" y="0px"
	 width="65px" height="65px" viewBox="0 0 65 65" enable-background="new 0 0 65 65" xml:space="preserve">
<g>
	<path fill="#FFFFFF" d="M32.5,0C14.551,0,0,14.551,0,32.5S14.551,65,32.5,65S65,50.449,65,32.5S50.449,0,32.5,0z M54,31h-6v-9.577
		l-7.664,7.558c4.97,6.873,4.19,16.549-1.997,22.734c-3.323,3.324-7.7,5.162-12.401,5.162c-4.7,0-9.099-1.817-12.422-5.14
		c-6.859-6.861-6.847-18.001,0.012-24.862c3.323-3.324,7.745-5.101,12.445-5.101c3.752,0,7.316,1.349,10.294,3.509L43.821,18H35v-6
		h19V31z"/>
	<path fill="#FFFFFF" d="M25.979,27.271c-3.204,0-6.217,1.246-8.483,3.512c-4.676,4.678-4.677,12.291,0,16.971
		c2.266,2.266,5.279,3.512,8.483,3.512s6.216-1.248,8.482-3.514c4.679-4.678,4.679-12.291,0-16.969
		C32.196,28.517,29.185,27.271,25.979,27.271z"/>
</g>
</svg>
