<svg xmlns="http://www.w3.org/2000/svg" width="60" height="60"><g stroke="#FFF" stroke-miterlimit="10"><path fill="#EA838D" stroke-width="2" d="M36.175 41.62l18.722-18.031L46.461 16H26.059l-8.557 7.589L36.175 41.62zM18 24h37"/><path fill="none" stroke-width="1.5" d="M33.004 15.607l-2.916 7.2 6.172 18.878M39.674 15.607l2.915 7.2-6.329 18.878"/></g><path fill="#EA838D" d="M23.922 43.144c-1.938 0-3.655-.641-4.967-1.853-.187-.173-.473-.413-.799-.688-.718-.601-2.052-1.719-2.286-2.203-1.248-2.588-.015-5.754 3.884-9.967 3.137-3.388 5.73-5.035 7.933-5.035.895 0 1.726.267 2.529.819.166.13 1.008 1.044 1.459 1.535.455.495.722.782.84.89 3.296 3.052 2.938 8.82-.799 12.861-2.143 2.314-4.984 3.641-7.794 3.641z"/><path fill="#FFF" d="M27.688 24.107c.733 0 1.415.219 2.087.665.223.206.97 1.017 1.377 1.46.534.579.747.809.878.931 3.011 2.785 2.636 8.103-.837 11.854-2.009 2.172-4.657 3.415-7.271 3.415-1.757 0-3.306-.574-4.484-1.663a25.09 25.09 0 0 0-.826-.711c-.561-.471-1.878-1.575-2.102-1.966-1.089-2.26.142-5.261 3.767-9.176 2.994-3.236 5.418-4.809 7.411-4.809m0-1.422c-2.808 0-5.718 2.307-8.455 5.265-3.225 3.484-5.66 7.326-4.002 10.76.405.837 2.54 2.454 3.243 3.104 1.488 1.377 3.416 2.042 5.449 2.042 2.876 0 5.966-1.331 8.316-3.872 4.01-4.333 4.351-10.541.758-13.864-.271-.251-2.078-2.287-2.378-2.492-.955-.653-1.937-.943-2.931-.943z"/><path fill="#EA838D" d="M21.398 41a7.235 7.235 0 0 1-4.966-1.949c-1.579-1.461-2.375-3.635-2.243-6.038.133-2.455 1.215-4.917 3.042-6.892 2.142-2.316 4.984-3.656 7.794-3.656 1.939 0 3.656.635 4.965 1.847 1.578 1.461 2.375 3.585 2.243 5.989-.134 2.455-1.214 4.987-3.042 6.962C27.049 39.577 24.209 41 21.4 41h-.002z"/><path fill="#FFF" d="M25.025 23.165c1.757 0 3.305.574 4.483 1.663 1.418 1.314 2.136 3.243 2.016 5.431-.126 2.289-1.14 4.571-2.854 6.423-2.008 2.172-4.658 3.416-7.271 3.416-1.756 0-3.305-.575-4.482-1.664-1.421-1.313-2.137-3.242-2.018-5.431.126-2.289 1.141-4.57 2.855-6.423 2.009-2.17 4.657-3.415 7.271-3.415m0-1.423c-2.878 0-5.965 1.333-8.316 3.872-4.011 4.333-4.351 10.542-.759 13.865 1.487 1.376 3.415 2.041 5.448 2.041 2.878 0 5.969-1.332 8.315-3.871 4.012-4.334 4.351-10.542.761-13.864-1.488-1.376-3.416-2.043-5.449-2.043z"/><text transform="matrix(.7393 .4699 -.5364 .844 17.777 33.716)" fill="#FFF" font-family="'Quicksand-Bold'" font-size="16.063">s</text><path fill="none" stroke="#FFF" stroke-linecap="round" stroke-miterlimit="10" d="M26.84 28.178l-7.768 7.768"/><g><path fill="#EA838D" d="M15.356 43.144c-1.939 0-3.655-.641-4.967-1.853-.188-.173-.473-.413-.799-.688-.718-.601-2.053-1.719-2.285-2.203-1.248-2.588-.015-5.754 3.883-9.967 3.137-3.388 5.73-5.035 7.933-5.035.895 0 1.726.267 2.53.819.165.13 1.007 1.044 1.458 1.535.456.495.723.782.839.89 3.297 3.052 2.94 8.82-.798 12.861-2.144 2.314-4.985 3.641-7.794 3.641z"/><path fill="#FFF" d="M19.121 24.107c.733 0 1.414.219 2.087.665.222.206.97 1.017 1.377 1.46.535.579.748.809.877.931 3.01 2.785 2.636 8.103-.837 11.854-2.008 2.172-4.657 3.415-7.27 3.415-1.757 0-3.307-.574-4.484-1.663a25.09 25.09 0 0 0-.826-.711c-.561-.471-1.878-1.575-2.102-1.966-1.089-2.26.142-5.261 3.767-9.176 2.995-3.236 5.418-4.809 7.411-4.809m0-1.422c-2.807 0-5.719 2.307-8.455 5.265-3.225 3.484-5.66 7.326-4.003 10.76.406.837 2.54 2.454 3.243 3.104 1.488 1.377 3.416 2.042 5.45 2.042 2.876 0 5.965-1.331 8.315-3.872 4.011-4.333 4.351-10.541.759-13.864-.271-.251-2.078-2.287-2.378-2.492-.956-.653-1.937-.943-2.931-.943z"/><g><path fill="#EA838D" d="M12.832 40.81c-1.938 0-3.656-.642-4.966-1.854-1.579-1.461-2.375-3.588-2.243-5.991.133-2.455 1.214-4.894 3.042-6.868 2.142-2.316 4.984-3.644 7.794-3.644 1.938 0 3.655.641 4.965 1.853 1.578 1.461 2.375 3.588 2.243 5.992-.134 2.455-1.214 4.893-3.042 6.869-2.143 2.313-4.983 3.643-7.793 3.643 0 0 .001 0 0 0z"/><path fill="#FFF" d="M16.459 23.165c1.756 0 3.305.574 4.482 1.663 1.419 1.314 2.137 3.243 2.016 5.431-.126 2.289-1.14 4.571-2.854 6.423-2.008 2.172-4.658 3.416-7.271 3.416-1.756 0-3.306-.575-4.482-1.664-1.421-1.313-2.138-3.242-2.019-5.431.127-2.289 1.141-4.57 2.855-6.423 2.01-2.17 4.658-3.415 7.273-3.415m0-1.423c-2.879 0-5.965 1.333-8.316 3.872-4.011 4.333-4.351 10.542-.76 13.865 1.487 1.376 3.415 2.041 5.449 2.041 2.877 0 5.968-1.332 8.314-3.871 4.013-4.334 4.351-10.542.762-13.864-1.488-1.376-3.416-2.043-5.449-2.043z"/></g></g><text transform="matrix(.7393 .4699 -.5364 .844 9.21 33.715)" fill="#FFF" font-family="'Quicksand-Bold'" font-size="16.063">s</text><path fill="none" stroke="#FFF" stroke-linecap="round" stroke-miterlimit="10" d="M18.273 28.178l-7.768 7.768"/></svg>