<svg xmlns="http://www.w3.org/2000/svg" width="60" height="60"><path fill="#FFF" d="M30 23.564c-7.769 0-14 2.355-14 5.273v5.859c0 2.918 6.231 6.444 14 6.444s14-3.526 14-6.444v-5.859c0-2.918-6.231-5.273-14-5.273zM11.5 38.797c-.324 0-.5-.262-.5-.586V22.979c0-.324.176-.585.5-.585s.5.262.5.585v15.232c0 .324-.176.586-.5.586z"/><path fill="#EA838D" d="M30 34.696L7.737 24.15 30 13.605 52.263 24.15z"/><path fill="#FFF" d="M30 35.992L5 24.15l25-11.842L55 24.15 30 35.992zM10.474 24.15L30 33.399l19.525-9.249L30 14.901 10.474 24.15z"/><g><path fill="#FFF" d="M9.495 47.665v-8.203a2.344 2.344 0 0 1 4.687 0v8.203"/></g></svg>