<svg xmlns="http://www.w3.org/2000/svg" width="60" height="60"><path fill="#FFF" d="M7.679 55A2.68 2.68 0 0 1 5 52.321V7.679a2.68 2.68 0 0 1 5.358 0v44.643c0 1.479-1.2 2.678-2.679 2.678z"/><path fill="#FFF" d="M52.321 55H7.679a2.68 2.68 0 0 1 0-5.357h44.643A2.679 2.679 0 1 1 52.321 55zM16.608 30.893a1.784 1.784 0 0 1-1.263-3.048l9.166-9.165 6.677 5.342L45.238 9.56a1.784 1.784 0 1 1 2.559 2.488L31.49 28.836l-6.714-5.372-6.907 6.905c-.347.35-.804.524-1.261.524z"/><path fill="#FFF" d="M48.304 9.018v10.774c0 .986-.512 1.786-1.5 1.786s-1.5-.8-1.5-1.786v-8.774"/><path fill="#FFF" d="M48.304 9.018H37.312c-.986 0-1.787.512-1.787 1.5s.801 1.5 1.787 1.5h8.992M20.179 46.072c-.987 0-1.786-.8-1.786-1.786v-8.681a1.786 1.786 0 1 1 3.573 0v8.681a1.787 1.787 0 0 1-1.787 1.786zM31.786 46.072c-.988 0-1.786-.8-1.786-1.786v-8.681a1.785 1.785 0 1 1 3.572 0v8.681c0 .986-.799 1.786-1.786 1.786zM43.394 46.072c-.988 0-1.786-.8-1.786-1.786V28.66a1.785 1.785 0 1 1 3.572 0v15.626c0 .986-.799 1.786-1.786 1.786z"/></svg>