<svg xmlns="http://www.w3.org/2000/svg" width="70" height="70"><circle fill="#FFF" cx="275" cy="195" r="35"/><circle fill="#FFF" cx="355" cy="195" r="35"/><circle fill="#FFF" cx="115" cy="195" r="35"/><circle fill="#FFF" cx="195" cy="195" r="35"/><circle fill="#FFF" cx="35" cy="195" r="35"/><circle fill="#FFF" cx="275" cy="275" r="35"/><circle fill="#FFF" cx="355" cy="275" r="35"/><circle fill="#FFF" cx="115" cy="275" r="35"/><circle fill="#FFF" cx="195" cy="275" r="35"/><circle fill="#FFF" cx="35" cy="275" r="35"/><path fill="#FFF" d="M35 43.587c-9.26 0-16.792-7.533-16.792-16.794C18.208 17.533 25.739 10 35 10c9.259 0 16.793 7.533 16.793 16.793-.001 9.262-7.534 16.794-16.793 16.794zm0-28.243c-6.313 0-11.45 5.136-11.45 11.45 0 6.314 5.136 11.451 11.45 11.451s11.45-5.136 11.45-11.451c-.001-6.314-5.137-11.45-11.45-11.45z"/><path fill="#FFF" d="M32.329 38.626h5.343V60h-5.343z"/><path fill="#FFF" d="M24.313 46.641h21.373v5.344H24.313zM110.093 57.5c-4.7 0-9.119-1.83-12.442-5.153-6.86-6.861-6.858-18.027.001-24.887a17.477 17.477 0 0 1 12.441-5.154c4.701 0 9.119 1.83 12.441 5.154 6.862 6.861 6.862 18.024 0 24.885a17.47 17.47 0 0 1-12.441 5.155zm0-29.595a11.922 11.922 0 0 0-8.483 3.513c-4.676 4.678-4.677 12.291 0 16.97 2.266 2.266 5.279 3.511 8.483 3.511s6.216-1.248 8.482-3.513c4.678-4.677 4.678-12.291 0-16.968a11.913 11.913 0 0 0-8.482-3.513z"/><path fill="#FFF" d="M132.72 13.325l3.96 3.959-15.837 15.838-3.96-3.959z"/><path fill="#FFF" d="M137.494 31.136h-5.599V18.099h-13.036V12.5h18.635z"/><text transform="translate(-57.253 43.587)"><tspan x="0" y="0" fill="#FFF" font-family="'NotoSansCJKkr-Thin-KSCpc-EUC-H'" font-size="7">총 운</tspan><tspan x="-2.24" y="12" fill="#FFF" font-family="'NotoSansCJKkr-Thin-KSCpc-EUC-H'" font-size="7">애정운</tspan><tspan x="-2.24" y="24" fill="#FFF" font-family="'NotoSansCJKkr-Thin-KSCpc-EUC-H'" font-size="7">금전운</tspan><tspan x="-2.24" y="36" fill="#FFF" font-family="'NotoSansCJKkr-Thin-KSCpc-EUC-H'" font-size="7">직장운</tspan><tspan x="-2.24" y="48" fill="#FFF" font-family="'NotoSansCJKkr-Thin-KSCpc-EUC-H'" font-size="7">학업운</tspan><tspan x=".98" y="60" fill="#FFF" font-family="'NotoSansCJKkr-Thin-KSCpc-EUC-H'" font-size="7">오늘</tspan><tspan x=".98" y="72" fill="#FFF" font-family="'NotoSansCJKkr-Thin-KSCpc-EUC-H'" font-size="7">내일</tspan><tspan x=".98" y="84" fill="#FFF" font-family="'NotoSansCJKkr-Thin-KSCpc-EUC-H'" font-size="7">이달</tspan></text><text transform="translate(-56.273 140)" fill="#FFF" font-family="'NotoSansCJKkr-Thin-KSCpc-EUC-H'" font-size="7">남녀</text><path fill="#FFF" d="M174.911 57.5a2.411 2.411 0 0 1-2.411-2.411V14.911a2.411 2.411 0 0 1 4.823 0V55.09a2.412 2.412 0 0 1-2.412 2.41z"/><path fill="#FFF" d="M215.094 57.5h-40.188a2.411 2.411 0 0 1 0-4.822h40.188a2.411 2.411 0 1 1 0 4.822zM182.947 35.803a1.605 1.605 0 0 1-1.137-2.743l8.25-8.248 6.009 4.808 12.646-13.016a1.606 1.606 0 1 1 2.302 2.24L196.34 33.953l-6.042-4.834-6.216 6.214c-.312.314-.724.47-1.135.47z"/><path fill="#FFF" d="M211.474 16.116v9.697c0 .888-.461 1.607-1.351 1.607-.889 0-1.35-.72-1.35-1.607v-7.897"/><path fill="#FFF" d="M211.474 16.116h-9.894c-.888 0-1.608.46-1.608 1.35 0 .889.721 1.35 1.608 1.35h8.094M186.161 49.465c-.888 0-1.607-.72-1.607-1.607v-7.813a1.606 1.606 0 1 1 3.215 0v7.813c0 .887-.719 1.607-1.608 1.607zM196.607 49.465c-.889 0-1.607-.72-1.607-1.607v-7.813a1.606 1.606 0 1 1 3.214 0v7.813a1.606 1.606 0 0 1-1.607 1.607zM207.055 49.465c-.89 0-1.608-.72-1.608-1.607V33.794a1.607 1.607 0 0 1 3.215 0v14.063c0 .888-.72 1.608-1.607 1.608zM266.061 53.559h-.223c-7.261 0-15.538-9.127-15.538-17.133 0-3.798 1.951-8.293 6.234-9.188 3.161-.661 5.693-.243 7.524 1.245.88.715 1.48 1.588 1.892 2.451.411-.86 1.011-1.731 1.889-2.444 1.83-1.488 4.364-1.905 7.525-1.245 4.283.895 6.234 5.386 6.234 9.181.001 7.077-8.035 17.133-15.537 17.133zm-6.807-24.624c-.707 0-1.479.087-2.312.261-3.672.767-4.643 5.065-4.643 7.23 0 6.93 7.339 15.133 13.538 15.133h.223c6.276 0 13.538-9.158 13.538-15.133 0-2.163-.971-6.456-4.643-7.223-2.55-.534-4.519-.25-5.856.838-2.016 1.639-2.039 4.589-2.039 4.619 0 .594-.546 1.064-1.125.992a1.013 1.013 0 0 1-1.098-.995c0-.027-.042-3.009-2.052-4.632-.898-.725-2.082-1.09-3.531-1.09z"/><path fill="#FFF" d="M288.624 59.442c-.882 0-1.809-.022-2.771-.046-1.028-.026-2.096-.053-3.192-.053s-2.164.026-3.191.053c-.963.023-1.89.046-2.771.046-4.761 0-9.407-.574-9.407-7.449 0-5.955 3.496-14.88 8.783-19.337a12.026 12.026 0 0 1-5.442-10.067c0-6.633 5.396-12.029 12.029-12.029 6.634 0 12.029 5.396 12.029 12.029 0 4.082-2.063 7.855-5.443 10.067 5.288 4.458 8.785 13.382 8.785 19.337 0 3.04-.902 5.07-2.759 6.209-1.777 1.09-4.246 1.24-6.65 1.24.001 0 .001 0 0 0z"/><path fill="#EA838D" d="M282.661 11.227c6.274 0 11.361 5.087 11.361 11.361a11.36 11.36 0 0 1-5.949 9.992c5.439 3.995 9.29 13.205 9.29 19.413 0 5.997-3.591 6.78-8.739 6.78-1.822 0-3.84-.098-5.963-.098s-4.141.098-5.963.098c-5.147 0-8.739-.784-8.739-6.78 0-6.208 3.85-15.418 9.291-19.413a11.358 11.358 0 0 1-5.949-9.992c0-6.275 5.086-11.361 11.36-11.361m0-1.337c-7.001 0-12.697 5.696-12.697 12.698 0 4.017 1.892 7.749 5.038 10.128-5.07 4.742-8.38 13.414-8.38 19.276 0 7.49 5.201 8.117 10.076 8.117.887 0 1.819-.022 2.788-.047 1.021-.025 2.084-.051 3.175-.051s2.153.025 3.175.051c.968.024 1.901.047 2.788.047 4.875 0 10.076-.627 10.076-8.117 0-5.862-3.309-14.534-8.379-19.276a12.693 12.693 0 0 0 5.037-10.128c0-7.002-5.696-12.698-12.697-12.698zM361.227 46.89l18.722-18.166L371.513 21H351.11l-8.556 7.724 18.673 18.166z"/><path fill="#FFF" d="M361.226 48.284l-20.134-19.587L350.726 20h21.176l9.506 8.703-20.182 19.581zm-17.21-19.533l17.212 16.745 17.264-16.751L371.124 22h-19.629l-7.479 6.751z"/><path fill="#EA838D" d="M343 29h37"/><path fill="#FFF" d="M343 28h37v2h-37z"/><path fill="#FFF" d="M360.599 47.187l-6.257-19.138 3.018-7.455 1.391.564-2.813 6.946 6.086 18.617z"/><path fill="#FFF" d="M362.022 47.192l-1.421-.476 6.241-18.615-2.812-6.944 1.391-.562 3.018 7.457z"/><path fill="#EA838D" d="M348.974 48.413c-1.938 0-3.654-.641-4.967-1.853-.187-.173-.473-.413-.799-.688-.717-.601-2.052-1.719-2.285-2.203-1.248-2.588-.015-5.754 3.884-9.968 3.137-3.388 5.73-5.035 7.933-5.035.895 0 1.726.268 2.529.819.166.13 1.008 1.044 1.459 1.534.455.495.722.782.84.89 3.296 3.053 2.938 8.82-.799 12.861-2.144 2.317-4.985 3.643-7.795 3.643z"/><path fill="#FFF" d="M352.739 29.377c.733 0 1.414.219 2.088.664.223.206.97 1.017 1.377 1.46.534.579.747.81.878.931 3.011 2.785 2.636 8.104-.837 11.854-2.01 2.172-4.657 3.415-7.271 3.415-1.756 0-3.305-.574-4.483-1.663a24.082 24.082 0 0 0-.826-.711c-.562-.471-1.878-1.575-2.102-1.966-1.089-2.26.142-5.261 3.767-9.177 2.993-3.235 5.417-4.807 7.409-4.807m0-1.423c-2.808 0-5.719 2.307-8.455 5.265-3.225 3.484-5.66 7.326-4.002 10.76.404.837 2.539 2.454 3.242 3.104 1.488 1.377 3.416 2.042 5.449 2.042 2.877 0 5.967-1.331 8.316-3.872 4.01-4.333 4.351-10.541.758-13.864-.271-.252-2.078-2.287-2.379-2.492-.952-.653-1.935-.943-2.929-.943z"/><g><path fill="#EA838D" d="M346.45 46c-1.938 0-3.656-.602-4.966-1.814-1.579-1.461-2.374-3.567-2.243-5.971.133-2.455 1.215-4.884 3.042-6.858 2.142-2.316 4.984-3.639 7.794-3.639 1.939 0 3.656.643 4.965 1.855 1.578 1.461 2.376 3.589 2.243 5.992-.134 2.455-1.214 4.855-3.042 6.831-2.142 2.314-4.982 3.604-7.791 3.604h-.002z"/><path fill="#FFF" d="M350.077 28.435c1.757 0 3.305.574 4.483 1.662 1.419 1.314 2.136 3.243 2.016 5.431-.126 2.289-1.14 4.571-2.854 6.424-2.008 2.172-4.658 3.416-7.271 3.416-1.756 0-3.305-.575-4.482-1.664-1.42-1.313-2.137-3.242-2.018-5.431.127-2.289 1.141-4.57 2.855-6.423 2.008-2.17 4.656-3.415 7.271-3.415m0-1.423c-2.879 0-5.965 1.332-8.316 3.871-4.011 4.334-4.35 10.542-.759 13.865 1.487 1.376 3.415 2.041 5.448 2.041 2.879 0 5.969-1.332 8.315-3.871 4.012-4.334 4.351-10.542.761-13.864-1.488-1.375-3.417-2.042-5.449-2.042z"/></g><text transform="matrix(.7393 .4699 -.5364 .844 342.826 39.023)" fill="#FFF" font-family="'Quicksand-Bold'" font-size="16.063">s</text><path fill="none" stroke="#FFF" stroke-linecap="round" stroke-miterlimit="10" d="M351.892 33.447l-7.768 7.769"/><g><path fill="#EA838D" d="M340.407 48.413c-1.938 0-3.654-.641-4.967-1.853-.188-.173-.473-.413-.799-.688-.718-.601-2.053-1.719-2.285-2.203-1.248-2.588-.016-5.754 3.883-9.968 3.137-3.388 5.73-5.035 7.934-5.035.895 0 1.726.268 2.529.819.166.13 1.008 1.044 1.458 1.534.456.495.723.782.839.89 3.297 3.053 2.94 8.82-.797 12.861-2.144 2.317-4.985 3.643-7.795 3.643z"/><path fill="#FFF" d="M344.173 29.377c.732 0 1.414.219 2.088.664.222.206.97 1.017 1.377 1.46.534.579.748.81.877.931 3.01 2.785 2.637 8.104-.837 11.854-2.009 2.172-4.657 3.415-7.271 3.415-1.756 0-3.307-.574-4.484-1.663a23.15 23.15 0 0 0-.826-.711c-.561-.471-1.878-1.575-2.102-1.966-1.089-2.26.143-5.261 3.768-9.177 2.994-3.235 5.418-4.807 7.41-4.807m0-1.423c-2.807 0-5.719 2.307-8.455 5.265-3.225 3.484-5.66 7.326-4.003 10.76.405.837 2.54 2.454 3.243 3.104 1.488 1.377 3.416 2.042 5.449 2.042 2.877 0 5.966-1.331 8.315-3.872 4.011-4.333 4.351-10.541.759-13.864-.271-.252-2.078-2.287-2.379-2.492-.955-.653-1.935-.943-2.929-.943z"/><g><path fill="#EA838D" d="M337.884 46.079c-1.938 0-3.656-.642-4.966-1.854-1.579-1.461-2.374-3.588-2.243-5.991.133-2.455 1.215-4.894 3.042-6.868 2.142-2.315 4.984-3.644 7.794-3.644 1.938 0 3.655.641 4.965 1.853 1.578 1.461 2.375 3.588 2.243 5.991-.134 2.455-1.214 4.894-3.042 6.869-2.143 2.315-4.983 3.644-7.793 3.644 0 0 .001 0 0 0z"/><path fill="#FFF" d="M341.511 28.435c1.756 0 3.305.574 4.482 1.662 1.419 1.314 2.137 3.243 2.016 5.431-.126 2.289-1.139 4.571-2.854 6.424-2.008 2.172-4.658 3.416-7.271 3.416-1.756 0-3.306-.575-4.482-1.664-1.42-1.313-2.137-3.242-2.018-5.431.127-2.289 1.141-4.57 2.854-6.423 2.009-2.17 4.658-3.415 7.273-3.415m0-1.423c-2.879 0-5.965 1.332-8.316 3.871-4.011 4.334-4.351 10.542-.76 13.865 1.488 1.376 3.415 2.041 5.449 2.041 2.877 0 5.968-1.332 8.314-3.871 4.013-4.334 4.352-10.542.762-13.864-1.488-1.375-3.416-2.042-5.449-2.042z"/></g></g><text transform="matrix(.7393 .4699 -.5364 .844 334.26 39.023)" fill="#FFF" font-family="'Quicksand-Bold'" font-size="16.063">s</text><path fill="none" stroke="#FFF" stroke-linecap="round" stroke-miterlimit="10" d="M343.325 33.447l-7.767 7.769"/><g><path fill="#FFF" d="M35 108.578c-7.769 0-14 2.355-14 5.273v5.859c0 2.918 6.231 6.444 14 6.444s14-3.526 14-6.444v-5.859c0-2.918-6.231-5.273-14-5.273zM16.5 123.81c-.324 0-.5-.262-.5-.586v-15.232c0-.324.176-.585.5-.585s.5.262.5.585v15.232c0 .324-.176.586-.5.586z"/><path fill="#EA838D" d="M35 119.709l-22.263-10.545L35 98.618l22.263 10.546z"/><path fill="#FFF" d="M35 121.005l-25-11.842 25-11.842 25 11.842-25 11.842zm-19.526-11.841L35 118.413l19.525-9.249L35 99.915l-19.526 9.249z"/><g><path fill="#FFF" d="M14.156 132.678v-8.203a2.345 2.345 0 0 1 2.344-2.344 2.345 2.345 0 0 1 2.344 2.344v8.203"/></g></g><g><path fill="#FFF" d="M93.776 135.416a1.275 1.275 0 0 1-1.276-1.275V95.86a1.275 1.275 0 1 1 2.552 0v38.281c0 .704-.571 1.275-1.276 1.275zM124.397 135.416a1.276 1.276 0 0 1-1.277-1.275V95.86a1.276 1.276 0 1 1 2.552 0v38.281c0 .704-.569 1.275-1.275 1.275z"/><path fill="#FFF" d="M124.397 97.136H93.776a1.275 1.275 0 1 1 0-2.552h30.622a1.276 1.276 0 1 1-.001 2.552zM124.397 135.416H93.776a1.275 1.275 0 1 1 0-2.551h30.622a1.275 1.275 0 1 1-.001 2.551zM100.785 104.296h2.453v2.453h-2.453zM105.494 104.296h2.452v2.453h-2.452zM110.202 104.296h2.453v2.453h-2.453zM114.91 104.296h2.453v2.453h-2.453zM100.785 109.004h2.453v2.453h-2.453zM105.494 109.004h2.452v2.453h-2.452zM110.202 109.004h2.453v2.453h-2.453zM114.91 109.004h2.453v2.453h-2.453zM100.785 113.712h2.453v2.453h-2.453zM105.494 113.712h2.452v2.453h-2.452zM110.202 113.712h2.453v2.453h-2.453zM114.91 113.712h2.453v2.453h-2.453z"/><g><path fill="#FFF" d="M113.721 134.602h-9.27v-8.64h9.27v8.64zm-7.47-1.8h5.67v-5.04h-5.67v5.04z"/></g><g><path fill="#FFF" d="M100.785 118.421h2.453v2.454h-2.453zM105.494 118.421h2.452v2.454h-2.452zM110.202 118.421h2.453v2.454h-2.453zM114.91 118.421h2.453v2.454h-2.453z"/></g><g><path fill="#FFF" d="M125.105 135.416a1.275 1.275 0 0 1-1.276-1.275v-13.585a1.275 1.275 0 0 1 2.552 0v13.585c0 .704-.57 1.275-1.276 1.275z"/></g><g><path fill="#FFF" d="M136.225 135.416a1.276 1.276 0 0 1-1.277-1.275v-13.9a1.276 1.276 0 0 1 2.552 0v13.9c0 .704-.57 1.275-1.275 1.275z"/></g><g><path fill="#FFF" d="M136.225 121.518h-11.12a1.276 1.276 0 1 1 0-2.553h11.12c.705 0 1.275.572 1.275 1.276 0 .706-.57 1.277-1.275 1.277z"/></g><g><path fill="#FFF" d="M135.893 135.416h-10.788a1.275 1.275 0 1 1 0-2.551h10.788a1.275 1.275 0 1 1 0 2.551z"/></g><g><path fill="#FFF" d="M128.799 123.431h1.418v1.417h-1.418zM131.522 123.431h1.419v1.417h-1.419zM128.799 126.153h1.418v1.419h-1.418zM131.522 126.153h1.419v1.419h-1.419z"/><g><path fill="#FFF" d="M128.799 128.599h1.418v1.419h-1.418zM131.522 128.599h1.419v1.419h-1.419z"/></g></g></g><g><g fill="#FFF"><path d="M182.298 121.609a.602.602 0 0 1 .125.396c0 .201-.107.37-.32.508a1.297 1.297 0 0 1-.723.207c-.45 0-.828-.099-1.136-.296s-.462-.616-.462-1.257v-3.083h-.5c-.174 0-.319-.06-.435-.179s-.174-.268-.174-.446a.593.593 0 0 1 .609-.604h.5v-.715a.67.67 0 0 1 .19-.486.632.632 0 0 1 .473-.195c.181 0 .333.065.457.195a.683.683 0 0 1 .185.486v.715h.772c.174 0 .319.06.435.179s.174.269.174.447a.59.59 0 0 1-.609.603h-.772v3.027c0 .156.04.27.12.341.08.07.188.105.326.105a.94.94 0 0 0 .239-.044.638.638 0 0 1 .25-.056c.101.002.193.052.276.152zM189.229 121.341c-.261.474-.618.84-1.071 1.101a2.94 2.94 0 0 1-1.495.391 2.93 2.93 0 0 1-1.5-.391 2.8 2.8 0 0 1-1.065-1.101c-.261-.473-.392-1.007-.392-1.603s.13-1.13.392-1.603a2.855 2.855 0 0 1 2.565-1.502c.544 0 1.042.133 1.495.396.453.265.81.634 1.071 1.106.261.473.391 1.007.391 1.603s-.13 1.13-.391 1.603zm-1.136-2.58a1.665 1.665 0 0 0-.598-.664 1.54 1.54 0 0 0-.832-.235c-.304 0-.582.079-.832.235s-.449.378-.598.664a2.103 2.103 0 0 0-.223.978c0 .365.074.688.223.972.149.283.348.503.598.659s.527.234.832.234c.305 0 .582-.078.832-.234.25-.156.449-.376.598-.659s.223-.606.223-.972c0-.365-.074-.691-.223-.978zM196.307 114.645c.123.126.184.29.184.491v6.903c0 .194-.061.356-.184.486s-.279.195-.468.195-.342-.063-.462-.189a.71.71 0 0 1-.19-.48c-.181.216-.426.4-.734.553s-.632.229-.973.229c-.5 0-.953-.132-1.359-.396a2.748 2.748 0 0 1-.962-1.1c-.236-.47-.354-1.002-.354-1.598s.116-1.13.348-1.603.549-.842.951-1.106a2.376 2.376 0 0 1 1.332-.396 2.585 2.585 0 0 1 1.751.692v-2.189a.68.68 0 0 1 .185-.485c.123-.13.279-.195.467-.195s.345.062.468.188zm-1.512 6.428c.297-.354.446-.799.446-1.335s-.148-.982-.446-1.34a1.428 1.428 0 0 0-1.152-.537c-.464 0-.844.179-1.141.537-.297.357-.446.804-.446 1.34s.146.981.44 1.335c.294.354.676.53 1.147.53s.855-.176 1.152-.53zM203.504 116.823c.123.127.184.29.184.491v4.725a.68.68 0 0 1-.184.486.62.62 0 0 1-.469.195.606.606 0 0 1-.461-.189.707.707 0 0 1-.191-.48c-.182.216-.426.4-.732.553a2.18 2.18 0 0 1-.975.229c-.5 0-.953-.132-1.357-.396a2.758 2.758 0 0 1-.963-1.1c-.236-.47-.354-1.002-.354-1.598s.115-1.13.348-1.603.549-.842.951-1.106a2.376 2.376 0 0 1 1.332-.396 2.555 2.555 0 0 1 1.75.692v-.011c0-.193.063-.355.186-.486a.616.616 0 0 1 .467-.195.622.622 0 0 1 .468.189zm-1.512 4.25c.297-.354.445-.799.445-1.335s-.148-.982-.445-1.34a1.429 1.429 0 0 0-1.152-.537c-.465 0-.844.179-1.143.537-.297.357-.445.804-.445 1.34s.146.981.441 1.335c.293.354.676.53 1.146.53s.856-.176 1.153-.53zM210.178 116.94a.68.68 0 0 1 .186.485v4.748c0 .968-.254 1.673-.762 2.116s-1.186.665-2.033.665c-.246 0-.498-.021-.756-.062a2.858 2.858 0 0 1-.625-.162c-.354-.156-.531-.373-.531-.648 0-.052.01-.111.031-.179a.716.716 0 0 1 .223-.374.538.538 0 0 1 .344-.128.65.65 0 0 1 .207.033c.049.022.139.06.266.111.127.053.262.096.402.129s.287.05.439.05c.516 0 .895-.113 1.137-.34.242-.228.363-.616.363-1.168v-.111c-.377.484-.963.726-1.76.726-.377 0-.711-.091-1-.273a1.818 1.818 0 0 1-.674-.76 2.473 2.473 0 0 1-.24-1.111v-3.262c0-.193.063-.355.186-.485s.277-.195.467-.195c.188 0 .344.065.467.195s.186.292.186.485v2.86c0 .469.1.806.299 1.011.199.204.49.307.875.307.377 0 .668-.113.875-.341.207-.227.311-.553.311-.977v-2.86c0-.193.061-.355.184-.485a.62.62 0 0 1 .469-.195c.184 0 .341.066.464.195z"/></g><path fill="#FFF" d="M204.567 97.539a1.7 1.7 0 0 1-1.699-1.7v-3.044a1.7 1.7 0 0 1 3.399 0v3.044a1.7 1.7 0 0 1-1.7 1.7zM185.503 97.539a1.7 1.7 0 0 1-1.699-1.7v-3.044a1.7 1.7 0 0 1 3.399 0v3.044a1.7 1.7 0 0 1-1.7 1.7zM174.167 138.903a1.67 1.67 0 0 1-1.672-1.671V94.84a1.671 1.671 0 1 1 3.344 0v42.393a1.67 1.67 0 0 1-1.672 1.67zM215.834 138.903a1.671 1.671 0 0 1-1.672-1.671V94.84a1.672 1.672 0 1 1 3.343 0v42.393a1.67 1.67 0 0 1-1.671 1.67z"/><path fill="#FFF" d="M215.834 138.903h-41.667a1.67 1.67 0 1 1 0-3.342h41.667a1.67 1.67 0 1 1 0 3.342zM215.834 103.49h-41.667c-.925 0-1.672-.347-1.672-.775s.747-.776 1.672-.776h41.667c.925 0 1.671.348 1.671.776s-.746.775-1.671.775zM215.834 93H208v4h7.834c.925 0 1.671-1.078 1.671-2 0-.922-.746-2-1.671-2z"/><g fill="#FFF"><path d="M182 96.509V93h-7.833c-.925 0-1.672 1.078-1.672 2 0 .922.747 2 1.672 2H182c-.017 0 0-.356 0-.491zM189 93v4h12v-4h-12z"/></g></g><g><path fill="#FFF" d="M284.567 97.539a1.7 1.7 0 0 1-1.699-1.7v-3.044a1.7 1.7 0 0 1 3.399 0v3.044a1.7 1.7 0 0 1-1.7 1.7zM265.504 97.539a1.7 1.7 0 0 1-1.699-1.7v-3.044c0-.937.762-1.699 1.699-1.699s1.699.762 1.699 1.699v3.044a1.7 1.7 0 0 1-1.699 1.7zM254.167 138.903a1.67 1.67 0 0 1-1.672-1.671V94.84a1.671 1.671 0 1 1 3.344 0v42.393a1.67 1.67 0 0 1-1.672 1.67zM295.834 138.903a1.671 1.671 0 0 1-1.672-1.671V94.84a1.672 1.672 0 1 1 3.343 0v42.393a1.67 1.67 0 0 1-1.671 1.67z"/><path fill="#FFF" d="M295.834 138.903h-41.667a1.67 1.67 0 1 1 0-3.342h41.667a1.67 1.67 0 1 1 0 3.342zM295.834 103.49h-41.667c-.925 0-1.672-.347-1.672-.775s.747-.776 1.672-.776h41.667c.925 0 1.671.348 1.671.776s-.746.775-1.671.775zM295.834 93H288v4h7.834c.925 0 1.671-1.078 1.671-2 0-.922-.746-2-1.671-2z"/><g fill="#FFF"><path d="M262 96.509V93h-7.833c-.925 0-1.672 1.078-1.672 2 0 .922.747 2 1.672 2H262c-.017 0 0-.356 0-.491zM269 93v4h12v-4h-12z"/></g><g fill="#FFF"><path d="M265.438 116.012a.605.605 0 0 1 .125.399c0 .203-.106.374-.321.513a1.32 1.32 0 0 1-.729.207c-.451 0-.833-.099-1.143-.297-.312-.2-.465-.621-.465-1.267v-3.104h-.505a.59.59 0 0 1-.438-.18.624.624 0 0 1-.174-.45.596.596 0 0 1 .612-.608h.505v-.72c0-.194.063-.357.19-.488s.287-.197.476-.197c.184 0 .336.065.461.197a.684.684 0 0 1 .187.488v.72h.776a.59.59 0 0 1 .438.18.62.62 0 0 1 .176.45.595.595 0 0 1-.614.607h-.776v3.047c0 .159.039.273.12.344a.474.474 0 0 0 .328.106.953.953 0 0 0 .241-.044.627.627 0 0 1 .251-.057c.103.003.195.054.279.154zM271.661 115.742c-.263.478-.621.847-1.077 1.109s-.958.394-1.506.394a2.943 2.943 0 0 1-1.51-.394 2.837 2.837 0 0 1-1.074-1.109 3.278 3.278 0 0 1-.394-1.614c0-.599.131-1.136.394-1.614a2.872 2.872 0 0 1 1.074-1.112 2.91 2.91 0 0 1 1.51-.4c.548 0 1.05.133 1.506.4.456.265.814.636 1.077 1.112.264.478.395 1.015.395 1.614 0 .601-.131 1.138-.395 1.614zm-1.142-2.598a1.696 1.696 0 0 0-.603-.668c-.252-.159-.531-.236-.838-.236s-.586.078-.837.236a1.68 1.68 0 0 0-.603.668c-.149.29-.225.618-.225.984 0 .368.075.694.225.979.149.286.351.507.603.664.251.157.53.236.837.236s.586-.079.838-.236c.251-.157.451-.378.603-.664.149-.285.224-.611.224-.979a2.135 2.135 0 0 0-.224-.984zM281.074 111.683c.278.453.417 1.082.417 1.884v2.878a.689.689 0 0 1-.187.49.623.623 0 0 1-.471.196.618.618 0 0 1-.47-.196.68.68 0 0 1-.187-.49v-2.878c0-.412-.079-.737-.236-.973-.157-.237-.432-.354-.825-.354-.409 0-.729.125-.958.376-.23.252-.345.568-.345.951v2.878a.689.689 0 0 1-.187.49.623.623 0 0 1-.471.196.626.626 0 0 1-.473-.196.691.691 0 0 1-.185-.49v-2.878c0-.412-.079-.737-.236-.973-.157-.237-.432-.354-.826-.354-.409 0-.728.125-.957.376-.23.252-.345.568-.345.951v2.878a.692.692 0 0 1-.186.49c-.125.131-.282.196-.472.196s-.346-.065-.472-.196a.692.692 0 0 1-.186-.49V111.8c0-.194.063-.357.186-.488.126-.131.282-.197.472-.197s.347.066.472.197a.687.687 0 0 1 .186.488v.18c.197-.27.447-.5.749-.691a1.856 1.856 0 0 1 1.013-.287c.92 0 1.508.412 1.763 1.237.168-.316.421-.6.762-.856a1.87 1.87 0 0 1 1.154-.381c.725 0 1.224.228 1.501.681zM287.817 115.742c-.263.478-.621.847-1.077 1.109s-.958.394-1.506.394a2.943 2.943 0 0 1-1.51-.394 2.837 2.837 0 0 1-1.074-1.109 3.278 3.278 0 0 1-.394-1.614c0-.599.131-1.136.394-1.614a2.872 2.872 0 0 1 1.074-1.112 2.91 2.91 0 0 1 1.51-.4c.548 0 1.05.133 1.506.4.456.265.814.636 1.077 1.112.264.478.395 1.015.395 1.614 0 .601-.131 1.138-.395 1.614zm-1.142-2.598a1.696 1.696 0 0 0-.603-.668c-.252-.159-.531-.236-.838-.236s-.586.078-.837.236a1.68 1.68 0 0 0-.603.668 2.11 2.11 0 0 0-.225.984c0 .368.074.694.225.979.149.286.351.507.603.664.251.157.53.236.837.236s.586-.079.838-.236c.251-.157.451-.378.603-.664.149-.285.224-.611.224-.979a2.135 2.135 0 0 0-.224-.984zM267.716 122.127a.578.578 0 0 1 .225.45c0 .231-.06.407-.176.522a.572.572 0 0 1-.416.175c-.108 0-.233-.026-.372-.078a2.837 2.837 0 0 0-.148-.046.88.88 0 0 0-.245-.033c-.189 0-.372.06-.548.18s-.318.302-.432.546a2.054 2.054 0 0 0-.169.871v2.665a.685.685 0 0 1-.187.489.621.621 0 0 1-.472.197.622.622 0 0 1-.471-.197.685.685 0 0 1-.187-.489v-4.645c0-.194.063-.357.187-.488a.62.62 0 0 1 .471-.197c.189 0 .347.065.472.197a.688.688 0 0 1 .187.488v.146c.167-.307.407-.542.721-.704.314-.16.65-.24 1.007-.24a.831.831 0 0 1 .553.191zM272.139 122.127a.577.577 0 0 1 .224.45c0 .231-.06.407-.175.522a.576.576 0 0 1-.417.175c-.108 0-.233-.026-.372-.078-.021-.008-.07-.023-.147-.046s-.159-.033-.246-.033a.96.96 0 0 0-.548.18c-.175.12-.318.302-.432.546a2.07 2.07 0 0 0-.169.871v2.665a.685.685 0 0 1-.187.489.62.62 0 0 1-.471.197.623.623 0 0 1-.472-.197.685.685 0 0 1-.187-.489v-4.645c0-.194.063-.357.187-.488a.621.621 0 0 1 .472-.197c.188 0 .346.065.471.197a.684.684 0 0 1 .187.488v.146a1.68 1.68 0 0 1 .722-.704c.313-.16.649-.24 1.007-.24a.831.831 0 0 1 .553.191zM277.955 126.676a2.802 2.802 0 0 1-1.077 1.108 2.96 2.96 0 0 1-1.506.394 2.943 2.943 0 0 1-1.51-.394 2.828 2.828 0 0 1-1.074-1.108 3.278 3.278 0 0 1-.394-1.614c0-.6.131-1.136.394-1.613a2.866 2.866 0 0 1 1.074-1.112 2.909 2.909 0 0 1 1.51-.399c.548 0 1.05.133 1.506.399.456.266.814.636 1.077 1.112.264.478.396 1.014.396 1.613 0 .602-.132 1.139-.396 1.614zm-1.143-2.597a1.68 1.68 0 0 0-.602-.668c-.252-.159-.531-.237-.838-.237s-.586.078-.837.237c-.252.156-.453.38-.603.668-.15.29-.225.617-.225.983 0 .368.074.694.225.979.149.285.351.507.603.664.251.156.53.236.837.236s.586-.08.838-.236c.251-.157.451-.379.602-.664.149-.285.225-.611.225-.979a2.13 2.13 0 0 0-.225-.983zM286.303 122.247c.12.131.181.297.181.5 0 .067-.015.152-.044.258l-1.675 4.634a.615.615 0 0 1-.235.321.621.621 0 0 1-.367.117l-.087-.011c-.249-.016-.435-.157-.559-.428l-.931-2.767-.886 2.767c-.124.271-.31.412-.559.428l-.087.011a.621.621 0 0 1-.367-.117.619.619 0 0 1-.235-.321l-1.675-4.634a.768.768 0 0 1-.044-.258c0-.188.061-.351.182-.489a.598.598 0 0 1 .476-.208c.145 0 .271.035.377.107a.553.553 0 0 1 .224.32l1.183 3.295.865-2.407c.117-.278.317-.417.603-.417.153 0 .271.034.355.103a.76.76 0 0 1 .213.314l.844 2.351 1.172-3.238a.54.54 0 0 1 .229-.32.722.722 0 0 1 .406-.107.568.568 0 0 1 .441.196z"/></g></g><g><path fill="#FFF" d="M364.567 97.539a1.7 1.7 0 0 1-1.699-1.7v-3.044a1.7 1.7 0 0 1 3.399 0v3.044a1.7 1.7 0 0 1-1.7 1.7zM345.504 97.539a1.7 1.7 0 0 1-1.699-1.7v-3.044c0-.937.762-1.699 1.699-1.699s1.699.762 1.699 1.699v3.044a1.7 1.7 0 0 1-1.699 1.7zM334.167 138.903a1.67 1.67 0 0 1-1.672-1.671V94.84a1.671 1.671 0 1 1 3.344 0v42.393a1.67 1.67 0 0 1-1.672 1.67zM375.834 138.903a1.671 1.671 0 0 1-1.672-1.671V94.84a1.672 1.672 0 1 1 3.343 0v42.393a1.67 1.67 0 0 1-1.671 1.67z"/><path fill="#FFF" d="M375.834 138.903h-41.667a1.67 1.67 0 1 1 0-3.342h41.667a1.67 1.67 0 1 1 0 3.342zM375.834 103.49h-41.667c-.925 0-1.672-.347-1.672-.775s.747-.776 1.672-.776h41.667c.925 0 1.671.348 1.671.776s-.746.775-1.671.775zM375.834 93H368v4h7.834c.925 0 1.671-1.078 1.671-2 0-.922-.746-2-1.671-2z"/><g fill="#FFF"><path d="M342 96.509V93h-7.833c-.925 0-1.672 1.078-1.672 2 0 .922.747 2 1.672 2H342c-.017 0 0-.356 0-.491zM349 93v4h12v-4h-12z"/></g><g fill="#FFF"><path d="M347.508 117.456c.277.454.416 1.082.416 1.884v2.879a.684.684 0 0 1-.186.489c-.124.132-.281.197-.471.197s-.347-.065-.471-.197a.684.684 0 0 1-.186-.489v-2.879c0-.412-.079-.736-.236-.973-.156-.236-.432-.354-.826-.354-.408 0-.728.126-.957.377-.23.251-.346.568-.346.95v2.879a.688.688 0 0 1-.186.489c-.125.132-.281.197-.471.197s-.347-.065-.471-.197a.68.68 0 0 1-.186-.489v-2.879c0-.412-.079-.736-.236-.973-.156-.236-.432-.354-.826-.354-.408 0-.729.126-.958.377s-.345.568-.345.95v2.879a.688.688 0 0 1-.186.489.62.62 0 0 1-.471.197.616.616 0 0 1-.471-.197.68.68 0 0 1-.187-.489v-4.645c0-.194.062-.357.187-.489a.617.617 0 0 1 .471-.196c.189 0 .346.065.471.196a.691.691 0 0 1 .186.489v.18c.197-.27.447-.5.75-.691s.641-.286 1.013-.286c.919 0 1.507.412 1.763 1.236.167-.314.421-.6.76-.854.34-.255.725-.382 1.155-.382.723-.001 1.223.225 1.501.679zM354.251 121.516c-.263.476-.622.845-1.078 1.107s-.958.394-1.505.394c-.555 0-1.059-.131-1.511-.394s-.81-.632-1.073-1.107c-.262-.477-.394-1.015-.394-1.614s.132-1.138.394-1.614a2.887 2.887 0 0 1 1.073-1.113 2.924 2.924 0 0 1 1.511-.398c.547 0 1.049.133 1.505.398.456.267.815.638 1.078 1.113.263.477.394 1.015.394 1.614s-.131 1.138-.394 1.614zm-1.144-2.599a1.684 1.684 0 0 0-.603-.669c-.251-.157-.53-.236-.837-.236s-.586.079-.838.236-.453.381-.602.669c-.15.289-.225.617-.225.984s.074.693.225.979c.148.285.35.506.602.664.252.157.531.235.838.235s.586-.078.837-.235c.252-.158.452-.379.603-.664.148-.285.225-.611.225-.979s-.076-.694-.225-.984zM360.086 117.456c.283.454.426 1.082.426 1.884v2.879a.688.688 0 0 1-.186.489c-.125.132-.281.197-.471.197s-.348-.065-.471-.197a.68.68 0 0 1-.186-.489v-2.879c0-.412-.084-.736-.252-.973s-.457-.354-.865-.354c-.424 0-.756.126-.996.377s-.361.568-.361.95v2.879a.688.688 0 0 1-.186.489.62.62 0 0 1-.471.197.616.616 0 0 1-.471-.197.68.68 0 0 1-.187-.489v-4.645c0-.194.062-.357.187-.489a.617.617 0 0 1 .471-.196c.189 0 .346.065.471.196a.691.691 0 0 1 .186.489v.191c.197-.27.455-.502.771-.697a1.96 1.96 0 0 1 1.045-.292c.747 0 1.261.226 1.546.68zM364.709 121.786a.606.606 0 0 1 .127.399c0 .202-.107.373-.322.512a1.32 1.32 0 0 1-.729.208c-.453 0-.834-.1-1.145-.298-.311-.199-.465-.62-.465-1.266v-3.104h-.504a.588.588 0 0 1-.438-.181.617.617 0 0 1-.176-.449c0-.173.059-.317.176-.434s.262-.174.438-.174h.504v-.72c0-.195.064-.358.191-.489a.639.639 0 0 1 .477-.197c.182 0 .336.065.459.197a.681.681 0 0 1 .188.489V117h.775c.176 0 .322.06.439.18.115.12.174.271.174.45a.594.594 0 0 1-.613.608h-.775v3.048c0 .157.039.271.119.343s.189.106.328.106a.925.925 0 0 0 .242-.045.634.634 0 0 1 .25-.056c.104 0 .196.05.28.152zM370.33 117.456c.277.454.416 1.082.416 1.884v2.879a.688.688 0 0 1-.186.489c-.125.132-.281.197-.471.197s-.348-.065-.471-.197a.68.68 0 0 1-.186-.489v-2.879c0-.412-.08-.736-.236-.973s-.432-.354-.826-.354c-.408 0-.729.126-.957.377-.23.251-.346.568-.346.95v2.879a.688.688 0 0 1-.186.489c-.125.132-.281.197-.471.197s-.348-.065-.471-.197a.68.68 0 0 1-.186-.489v-6.95a.68.68 0 0 1 .186-.489c.123-.131.281-.197.471-.197s.346.065.471.197a.688.688 0 0 1 .186.489v2.485c.197-.27.447-.5.75-.691s.641-.286 1.012-.286c.724-.001 1.224.225 1.501.679z"/></g></g><g><path fill="#EA838D" d="M35 203.588c-9.26 0-16.792-7.533-16.792-16.795C18.208 177.533 25.739 170 35 170c9.259 0 16.793 7.533 16.793 16.793-.001 9.262-7.534 16.795-16.793 16.795zm0-28.244c-6.313 0-11.45 5.137-11.45 11.449 0 6.314 5.136 11.451 11.45 11.451s11.45-5.137 11.45-11.451c-.001-6.313-5.137-11.449-11.45-11.449z"/><path fill="#EA838D" d="M32.329 198.626h5.343V220h-5.343z"/><path fill="#EA838D" d="M24.313 206.641h21.373v5.344H24.313z"/></g><g><path fill="#EA838D" d="M110.093 217.5c-4.7 0-9.119-1.83-12.442-5.152-6.86-6.861-6.858-18.027.001-24.888a17.476 17.476 0 0 1 12.441-5.153 17.47 17.47 0 0 1 12.441 5.153c6.862 6.86 6.862 18.024 0 24.886a17.473 17.473 0 0 1-12.441 5.154zm0-29.595a11.918 11.918 0 0 0-8.483 3.513c-4.676 4.678-4.677 12.291 0 16.971 2.266 2.266 5.279 3.511 8.483 3.511s6.216-1.247 8.482-3.513c4.678-4.678 4.678-12.291 0-16.969a11.909 11.909 0 0 0-8.482-3.513z"/><path fill="#EA838D" d="M132.715 173.318l3.96 3.96-15.836 15.835-3.96-3.96z"/><path fill="#EA838D" d="M137.494 191.136h-5.599V178.1h-13.036v-5.6h18.635z"/></g><g><path fill="#EA838D" d="M174.911 217.501a2.411 2.411 0 0 1-2.411-2.411v-40.178a2.411 2.411 0 0 1 4.823 0v40.178a2.413 2.413 0 0 1-2.412 2.411z"/><path fill="#EA838D" d="M215.096 217.501h-40.192a2.413 2.413 0 0 1-2.412-2.412c0-1.33 1.081-2.41 2.412-2.41h40.192a2.411 2.411 0 1 1 0 4.822zM182.947 195.804c-.411 0-.822-.157-1.137-.472a1.605 1.605 0 0 1 0-2.272l8.25-8.248 6.009 4.808 12.646-13.016a1.605 1.605 0 0 1 2.272-.032c.635.618.651 1.637.03 2.271l-14.677 15.109-6.042-4.834-6.216 6.214a1.597 1.597 0 0 1-1.135.472z"/><path fill="#EA838D" d="M211.474 176.116v9.696c0 .888-.461 1.607-1.351 1.607-.889 0-1.35-.72-1.35-1.607v-7.896"/><path fill="#EA838D" d="M211.474 176.116h-9.894c-.888 0-1.608.46-1.608 1.35s.721 1.35 1.608 1.35h8.094M186.161 209.465c-.888 0-1.607-.72-1.607-1.607v-7.813a1.606 1.606 0 1 1 3.215 0v7.813c0 .887-.719 1.607-1.608 1.607zM196.607 209.465c-.889 0-1.607-.72-1.607-1.607v-7.813a1.606 1.606 0 1 1 3.214 0v7.813a1.606 1.606 0 0 1-1.607 1.607zM207.055 209.465c-.89 0-1.608-.72-1.608-1.607v-14.063a1.607 1.607 0 0 1 3.215 0v14.063c0 .887-.72 1.607-1.607 1.607z"/></g><g><path fill="#EA838D" d="M266.061 213.559h-.223c-7.261 0-15.538-9.127-15.538-17.133 0-3.797 1.951-8.293 6.234-9.188 3.161-.66 5.693-.243 7.524 1.244.88.715 1.48 1.589 1.892 2.451.411-.859 1.011-1.73 1.889-2.443 1.83-1.488 4.364-1.905 7.525-1.244 4.283.895 6.234 5.386 6.234 9.18.001 7.078-8.035 17.133-15.537 17.133zm-6.807-24.623a11.3 11.3 0 0 0-2.312.261c-3.672.767-4.643 5.065-4.643 7.229 0 6.931 7.339 15.133 13.538 15.133h.223c6.276 0 13.538-9.157 13.538-15.133 0-2.162-.971-6.455-4.643-7.223-2.55-.533-4.519-.25-5.856.839-2.016 1.639-2.039 4.589-2.039 4.619 0 .595-.546 1.063-1.125.992a1.013 1.013 0 0 1-1.098-.995c0-.027-.042-3.01-2.052-4.632-.898-.726-2.082-1.09-3.531-1.09z"/></g><g><path fill="#EA838D" d="M288.624 219.441c-.882 0-1.809-.021-2.771-.045-1.028-.027-2.096-.053-3.192-.053s-2.164.025-3.191.053c-.963.023-1.89.045-2.771.045-4.761 0-9.407-.574-9.407-7.449 0-5.955 3.496-14.879 8.783-19.337a12.026 12.026 0 0 1-5.442-10.067c0-6.633 5.396-12.029 12.029-12.029 6.634 0 12.029 5.396 12.029 12.029 0 4.082-2.063 7.855-5.443 10.067 5.288 4.458 8.785 13.382 8.785 19.337 0 3.041-.902 5.07-2.759 6.209-1.777 1.09-4.246 1.24-6.65 1.24.001 0 .001 0 0 0z"/><path fill="#FFF" d="M282.661 171.227c6.274 0 11.361 5.087 11.361 11.361 0 4.314-2.406 8.068-5.949 9.992 5.439 3.994 9.29 13.205 9.29 19.412 0 5.998-3.591 6.781-8.739 6.781-1.822 0-3.84-.098-5.963-.098s-4.141.098-5.963.098c-5.147 0-8.739-.785-8.739-6.781 0-6.207 3.85-15.418 9.291-19.412a11.36 11.36 0 0 1-5.949-9.992c0-6.275 5.086-11.361 11.36-11.361m0-1.336c-7.001 0-12.697 5.695-12.697 12.697 0 4.017 1.892 7.749 5.038 10.129-5.07 4.742-8.38 13.414-8.38 19.275 0 7.49 5.201 8.117 10.076 8.117.887 0 1.819-.021 2.788-.047 1.021-.025 2.084-.051 3.175-.051s2.153.025 3.175.051c.968.025 1.901.047 2.788.047 4.875 0 10.076-.627 10.076-8.117 0-5.861-3.309-14.533-8.379-19.275a12.695 12.695 0 0 0 5.037-10.129c0-7.002-5.696-12.697-12.697-12.697z"/></g><g><path fill="#EA838D" d="M35 268.578c-7.769 0-14 2.354-14 5.272v5.858c0 2.918 6.231 6.445 14 6.445s14-3.527 14-6.445v-5.858c0-2.917-6.231-5.272-14-5.272z"/></g><g><path fill="#EA838D" d="M16.5 283.811c-.324 0-.5-.262-.5-.586v-15.232c0-.324.176-.586.5-.586s.5.262.5.586v15.232c0 .324-.176.586-.5.586z"/></g><path fill="#FFF" d="M35 279.709l-22.263-10.545L35 258.618l22.263 10.546z"/><path fill="#EA838D" d="M35 281.006l-25-11.842 25-11.842 25 11.842-25 11.842zm-19.526-11.842L35 278.412l19.525-9.248L35 259.914l-19.526 9.25z"/><g><path fill="#EA838D" d="M14.156 292.678v-8.203a2.345 2.345 0 0 1 2.344-2.344 2.345 2.345 0 0 1 2.344 2.344v8.203"/></g><g><path fill="#EA838D" d="M93.776 295.416a1.275 1.275 0 0 1-1.276-1.275V255.86a1.275 1.275 0 1 1 2.552 0v38.281c0 .704-.571 1.275-1.276 1.275zM124.397 295.416a1.276 1.276 0 0 1-1.277-1.275V255.86a1.276 1.276 0 0 1 2.552 0v38.281c0 .704-.569 1.275-1.275 1.275z"/><path fill="#EA838D" d="M124.397 257.137H93.776a1.276 1.276 0 1 1 0-2.552h30.622a1.277 1.277 0 0 1-.001 2.552zM124.397 295.416H93.776a1.275 1.275 0 1 1 0-2.55h30.622a1.275 1.275 0 0 1-.001 2.55zM100.785 264.296h2.453v2.453h-2.453zM105.494 264.296h2.452v2.453h-2.452zM110.202 264.296h2.453v2.453h-2.453zM114.91 264.296h2.453v2.453h-2.453zM100.785 269.004h2.453v2.453h-2.453zM105.494 269.004h2.452v2.453h-2.452zM110.202 269.004h2.453v2.453h-2.453zM114.91 269.004h2.453v2.453h-2.453zM100.785 273.713h2.453v2.453h-2.453zM105.494 273.713h2.452v2.453h-2.452zM110.202 273.713h2.453v2.453h-2.453zM114.91 273.713h2.453v2.453h-2.453z"/><g><path fill="#EA838D" d="M113.721 294.602h-9.27v-8.639h9.27v8.639zm-7.47-1.799h5.67v-5.04h-5.67v5.04z"/></g><g><path fill="#EA838D" d="M100.785 278.421h2.453v2.454h-2.453zM105.494 278.421h2.452v2.454h-2.452zM110.202 278.421h2.453v2.454h-2.453zM114.91 278.421h2.453v2.454h-2.453z"/></g><g><path fill="#EA838D" d="M125.105 295.416a1.275 1.275 0 0 1-1.276-1.275v-13.585a1.275 1.275 0 0 1 2.552 0v13.585c0 .704-.57 1.275-1.276 1.275z"/></g><g><path fill="#EA838D" d="M136.225 295.416a1.276 1.276 0 0 1-1.277-1.275v-13.9a1.276 1.276 0 0 1 2.552 0v13.9c0 .704-.57 1.275-1.275 1.275z"/></g><g><path fill="#EA838D" d="M136.225 281.518h-11.12a1.275 1.275 0 1 1 0-2.552h11.12a1.275 1.275 0 0 1 0 2.552z"/></g><g><path fill="#EA838D" d="M135.893 295.416h-10.788a1.275 1.275 0 1 1 0-2.55h10.788a1.275 1.275 0 1 1 0 2.55z"/></g><g><path fill="#EA838D" d="M128.799 283.431h1.418v1.417h-1.418zM131.522 283.431h1.419v1.417h-1.419zM128.799 286.153h1.418v1.419h-1.418zM131.522 286.153h1.419v1.419h-1.419z"/><g><path fill="#EA838D" d="M128.799 288.599h1.418v1.419h-1.418zM131.522 288.599h1.419v1.419h-1.419z"/></g></g></g><g><g fill="#EA838D"><path d="M182.298 281.609a.602.602 0 0 1 .125.396c0 .201-.107.37-.32.508a1.297 1.297 0 0 1-.723.207c-.45 0-.828-.099-1.136-.296s-.462-.616-.462-1.257v-3.083h-.5c-.174 0-.319-.06-.435-.179s-.174-.268-.174-.446a.593.593 0 0 1 .609-.604h.5v-.715a.67.67 0 0 1 .19-.486.632.632 0 0 1 .473-.195c.181 0 .333.065.457.195a.683.683 0 0 1 .185.486v.715h.772c.174 0 .319.06.435.179s.174.269.174.447a.59.59 0 0 1-.609.603h-.772v3.027c0 .156.04.27.12.341.08.07.188.105.326.105a.94.94 0 0 0 .239-.044.638.638 0 0 1 .25-.056c.101.002.193.052.276.152zM189.229 281.341c-.261.474-.618.84-1.071 1.101a2.94 2.94 0 0 1-1.495.391 2.93 2.93 0 0 1-1.5-.391 2.8 2.8 0 0 1-1.065-1.101c-.261-.473-.392-1.007-.392-1.603s.13-1.13.392-1.603a2.855 2.855 0 0 1 2.565-1.502c.544 0 1.042.133 1.495.396.453.265.81.634 1.071 1.106.261.473.391 1.007.391 1.603s-.13 1.13-.391 1.603zm-1.136-2.58a1.665 1.665 0 0 0-.598-.664 1.54 1.54 0 0 0-.832-.235c-.304 0-.582.079-.832.235s-.449.378-.598.664a2.103 2.103 0 0 0-.223.978c0 .365.074.688.223.972.149.283.348.503.598.659s.527.234.832.234c.305 0 .582-.078.832-.234.25-.156.449-.376.598-.659s.223-.606.223-.972c0-.365-.074-.691-.223-.978zM196.307 274.645c.123.127.184.29.184.491v6.903c0 .194-.061.356-.184.486s-.279.195-.468.195-.342-.063-.462-.189a.71.71 0 0 1-.19-.48c-.181.216-.426.4-.734.553s-.632.229-.973.229c-.5 0-.953-.132-1.359-.396a2.748 2.748 0 0 1-.962-1.1c-.236-.47-.354-1.002-.354-1.598s.116-1.13.348-1.603.549-.842.951-1.106a2.376 2.376 0 0 1 1.332-.396 2.585 2.585 0 0 1 1.751.692v-2.189a.68.68 0 0 1 .185-.485c.123-.131.279-.195.467-.195s.345.062.468.188zm-1.512 6.428c.297-.354.446-.799.446-1.335s-.148-.982-.446-1.34a1.428 1.428 0 0 0-1.152-.537c-.464 0-.844.179-1.141.537-.297.357-.446.804-.446 1.34s.146.981.44 1.335c.294.354.676.53 1.147.53s.855-.176 1.152-.53zM203.504 276.823c.123.127.184.29.184.491v4.725a.68.68 0 0 1-.184.486.62.62 0 0 1-.469.195.606.606 0 0 1-.461-.189.707.707 0 0 1-.191-.48c-.182.216-.426.4-.732.553a2.18 2.18 0 0 1-.975.229c-.5 0-.953-.132-1.357-.396a2.758 2.758 0 0 1-.963-1.1c-.236-.47-.354-1.002-.354-1.598s.115-1.13.348-1.603.549-.842.951-1.106a2.376 2.376 0 0 1 1.332-.396 2.555 2.555 0 0 1 1.75.692v-.011c0-.193.063-.355.186-.486a.616.616 0 0 1 .467-.195.622.622 0 0 1 .468.189zm-1.512 4.25c.297-.354.445-.799.445-1.335s-.148-.982-.445-1.34a1.429 1.429 0 0 0-1.152-.537c-.465 0-.844.179-1.143.537-.297.357-.445.804-.445 1.34s.146.981.441 1.335c.293.354.676.53 1.146.53s.856-.176 1.153-.53zM210.178 276.94a.68.68 0 0 1 .186.485v4.748c0 .968-.254 1.673-.762 2.116s-1.186.665-2.033.665c-.246 0-.498-.021-.756-.062a2.858 2.858 0 0 1-.625-.162c-.354-.156-.531-.373-.531-.648 0-.052.01-.111.031-.179a.716.716 0 0 1 .223-.374.538.538 0 0 1 .344-.128.65.65 0 0 1 .207.033c.049.022.139.06.266.111.127.053.262.096.402.129s.287.05.439.05c.516 0 .895-.113 1.137-.34.242-.228.363-.616.363-1.168v-.111c-.377.484-.963.726-1.76.726-.377 0-.711-.091-1-.273a1.818 1.818 0 0 1-.674-.76 2.473 2.473 0 0 1-.24-1.111v-3.262c0-.193.063-.355.186-.485s.277-.195.467-.195c.188 0 .344.065.467.195s.186.292.186.485v2.86c0 .469.1.806.299 1.011.199.204.49.307.875.307.377 0 .668-.113.875-.341.207-.227.311-.553.311-.977v-2.86c0-.193.061-.355.184-.485a.62.62 0 0 1 .469-.195c.184 0 .341.066.464.195z"/></g><path fill="#EA838D" d="M204.567 257.539a1.7 1.7 0 0 1-1.699-1.699v-3.045a1.7 1.7 0 0 1 3.399 0v3.045a1.7 1.7 0 0 1-1.7 1.699zM185.503 257.539a1.7 1.7 0 0 1-1.699-1.699v-3.045a1.7 1.7 0 0 1 3.399 0v3.045a1.7 1.7 0 0 1-1.7 1.699zM174.167 298.903a1.67 1.67 0 0 1-1.672-1.671V254.84a1.671 1.671 0 1 1 3.344 0v42.393a1.67 1.67 0 0 1-1.672 1.67zM215.834 298.903a1.671 1.671 0 0 1-1.672-1.671V254.84a1.672 1.672 0 1 1 3.343 0v42.393a1.67 1.67 0 0 1-1.671 1.67z"/><path fill="#EA838D" d="M215.834 298.903h-41.667a1.67 1.67 0 1 1 0-3.342h41.667a1.67 1.67 0 1 1 0 3.342zM215.834 263.49h-41.667c-.925 0-1.672-.347-1.672-.775s.747-.776 1.672-.776h41.667c.925 0 1.671.348 1.671.776s-.746.775-1.671.775zM215.834 253H208v4h7.834c.925 0 1.671-1.078 1.671-2s-.746-2-1.671-2z"/><g fill="#EA838D"><path d="M182 256.509V253h-7.833c-.925 0-1.672 1.078-1.672 2s.747 2 1.672 2H182c-.017 0 0-.355 0-.491zM189 253v4h12v-4h-12z"/></g></g><g><path fill="#EA838D" d="M284.567 257.539a1.7 1.7 0 0 1-1.699-1.699v-3.045a1.7 1.7 0 0 1 3.399 0v3.045a1.7 1.7 0 0 1-1.7 1.699zM265.504 257.539a1.7 1.7 0 0 1-1.699-1.699v-3.045c0-.936.762-1.698 1.699-1.698s1.699.763 1.699 1.698v3.045a1.7 1.7 0 0 1-1.699 1.699zM254.167 298.903a1.67 1.67 0 0 1-1.672-1.671V254.84a1.671 1.671 0 1 1 3.344 0v42.393a1.67 1.67 0 0 1-1.672 1.67zM295.834 298.903a1.671 1.671 0 0 1-1.672-1.671V254.84a1.672 1.672 0 1 1 3.343 0v42.393a1.67 1.67 0 0 1-1.671 1.67z"/><path fill="#EA838D" d="M295.834 298.903h-41.667a1.67 1.67 0 1 1 0-3.342h41.667a1.67 1.67 0 1 1 0 3.342zM295.834 263.49h-41.667c-.925 0-1.672-.347-1.672-.775s.747-.776 1.672-.776h41.667c.925 0 1.671.348 1.671.776s-.746.775-1.671.775zM295.834 253H288v4h7.834c.925 0 1.671-1.078 1.671-2s-.746-2-1.671-2z"/><g fill="#EA838D"><path d="M262 256.509V253h-7.833c-.925 0-1.672 1.078-1.672 2s.747 2 1.672 2H262c-.017 0 0-.355 0-.491zM269 253v4h12v-4h-12z"/></g><g fill="#EA838D"><path d="M265.438 276.012a.606.606 0 0 1 .125.4c0 .203-.106.373-.321.512a1.32 1.32 0 0 1-.729.207c-.451 0-.833-.098-1.143-.297-.312-.199-.465-.621-.465-1.266v-3.104h-.505a.587.587 0 0 1-.438-.181.622.622 0 0 1-.174-.449.6.6 0 0 1 .612-.608h.505v-.72c0-.194.063-.356.19-.488s.287-.196.476-.196c.184 0 .336.064.461.196a.685.685 0 0 1 .187.488v.72h.776a.59.59 0 0 1 .438.18.623.623 0 0 1 .176.451.595.595 0 0 1-.614.607h-.776v3.048c0 .158.039.273.12.344.079.07.189.105.328.105a.942.942 0 0 0 .241-.043.611.611 0 0 1 .251-.057c.103 0 .195.051.279.151zM271.661 275.742a2.824 2.824 0 0 1-1.077 1.109 2.97 2.97 0 0 1-1.506.393 2.953 2.953 0 0 1-1.51-.393 2.85 2.85 0 0 1-1.074-1.109 3.283 3.283 0 0 1-.394-1.614c0-.599.131-1.136.394-1.614a2.9 2.9 0 0 1 2.584-1.511c.548 0 1.05.133 1.506.4.456.266.814.636 1.077 1.111.264.479.395 1.016.395 1.614 0 .601-.131 1.138-.395 1.614zm-1.142-2.597a1.682 1.682 0 0 0-.603-.668c-.252-.159-.531-.236-.838-.236s-.586.077-.837.236c-.252.156-.453.379-.603.668s-.225.617-.225.983c0 .368.075.694.225.979s.351.506.603.664c.251.156.53.236.837.236s.586-.08.838-.236c.251-.158.451-.379.603-.664.149-.285.224-.611.224-.979a2.127 2.127 0 0 0-.224-.983zM281.074 271.683c.278.453.417 1.081.417 1.884v2.879a.69.69 0 0 1-.187.49.622.622 0 0 1-.471.195.617.617 0 0 1-.47-.195.682.682 0 0 1-.187-.49v-2.879c0-.412-.079-.736-.236-.973s-.432-.354-.825-.354c-.409 0-.729.125-.958.376-.23.252-.345.567-.345.95v2.879a.69.69 0 0 1-.187.49.622.622 0 0 1-.471.195.625.625 0 0 1-.473-.195.693.693 0 0 1-.185-.49v-2.879c0-.412-.079-.736-.236-.973s-.432-.354-.826-.354c-.409 0-.728.125-.957.376-.23.252-.345.567-.345.95v2.879a.694.694 0 0 1-.186.49c-.125.131-.282.195-.472.195s-.346-.064-.472-.195a.694.694 0 0 1-.186-.49v-4.645c0-.194.063-.357.186-.488.126-.131.282-.197.472-.197s.347.066.472.197a.687.687 0 0 1 .186.488v.18c.197-.27.447-.5.749-.691a1.864 1.864 0 0 1 1.013-.287c.92 0 1.508.412 1.763 1.238.168-.316.421-.6.762-.856a1.87 1.87 0 0 1 1.154-.382c.725.001 1.224.229 1.501.682zM287.817 275.742a2.824 2.824 0 0 1-1.077 1.109 2.97 2.97 0 0 1-1.506.393 2.953 2.953 0 0 1-1.51-.393 2.85 2.85 0 0 1-1.074-1.109 3.283 3.283 0 0 1-.394-1.614c0-.599.131-1.136.394-1.614a2.9 2.9 0 0 1 2.584-1.511c.548 0 1.05.133 1.506.4.456.266.814.636 1.077 1.111.264.479.395 1.016.395 1.614 0 .601-.131 1.138-.395 1.614zm-1.142-2.597a1.682 1.682 0 0 0-.603-.668c-.252-.159-.531-.236-.838-.236s-.586.077-.837.236a1.668 1.668 0 0 0-.603.668c-.15.289-.225.617-.225.983 0 .368.074.694.225.979.149.285.351.506.603.664.251.156.53.236.837.236s.586-.08.838-.236c.251-.158.451-.379.603-.664.149-.285.224-.611.224-.979a2.127 2.127 0 0 0-.224-.983zM267.716 282.127a.58.58 0 0 1 .225.451c0 .23-.06.406-.176.521a.57.57 0 0 1-.416.176c-.108 0-.233-.027-.372-.078-.021-.008-.07-.023-.148-.047a.918.918 0 0 0-.793.147c-.176.121-.318.303-.432.547a2.047 2.047 0 0 0-.169.871v2.664a.687.687 0 0 1-.187.49.625.625 0 0 1-.472.197.626.626 0 0 1-.471-.197.687.687 0 0 1-.187-.49v-4.645c0-.193.063-.357.187-.488a.624.624 0 0 1 .471-.197c.189 0 .347.066.472.197a.69.69 0 0 1 .187.488v.146c.167-.307.407-.541.721-.703.314-.16.65-.24 1.007-.24a.83.83 0 0 1 .553.19zM272.139 282.127a.579.579 0 0 1 .224.451c0 .23-.06.406-.175.521a.573.573 0 0 1-.417.176c-.108 0-.233-.027-.372-.078-.021-.008-.07-.023-.147-.047a.931.931 0 0 0-.246-.033.968.968 0 0 0-.548.18 1.323 1.323 0 0 0-.432.547 2.063 2.063 0 0 0-.169.871v2.664a.687.687 0 0 1-.187.49.624.624 0 0 1-.471.197.626.626 0 0 1-.472-.197.687.687 0 0 1-.187-.49v-4.645c0-.193.063-.357.187-.488a.625.625 0 0 1 .472-.197c.188 0 .346.066.471.197a.685.685 0 0 1 .187.488v.146c.168-.307.407-.541.722-.703.313-.16.649-.24 1.007-.24a.83.83 0 0 1 .553.19zM277.955 286.676c-.263.479-.621.848-1.077 1.109s-.958.393-1.506.393a2.953 2.953 0 0 1-1.51-.393 2.824 2.824 0 0 1-1.074-1.109c-.263-.475-.394-1.012-.394-1.613 0-.6.131-1.137.394-1.613a2.868 2.868 0 0 1 1.074-1.113 2.917 2.917 0 0 1 1.51-.398c.548 0 1.05.133 1.506.398s.814.637 1.077 1.113c.264.477.396 1.014.396 1.613 0 .601-.132 1.138-.396 1.613zm-1.143-2.598a1.686 1.686 0 0 0-.602-.668c-.252-.158-.531-.236-.838-.236s-.586.078-.837.236a1.68 1.68 0 0 0-.603.668c-.15.291-.225.617-.225.984s.074.693.225.979c.149.285.351.508.603.664.251.156.53.236.837.236s.586-.08.838-.236c.251-.156.451-.379.602-.664.149-.285.225-.611.225-.979s-.076-.693-.225-.984zM286.303 282.246c.12.131.181.297.181.5 0 .068-.015.152-.044.258l-1.675 4.635a.612.612 0 0 1-.235.32.614.614 0 0 1-.367.117l-.087-.01c-.249-.016-.435-.158-.559-.428l-.931-2.768-.886 2.768c-.124.27-.31.412-.559.428l-.087.01a.614.614 0 0 1-.367-.117.616.616 0 0 1-.235-.32l-1.675-4.635a.768.768 0 0 1-.044-.258c0-.188.061-.35.182-.488a.599.599 0 0 1 .476-.209c.145 0 .271.035.377.107a.56.56 0 0 1 .224.32l1.183 3.295.865-2.406c.117-.279.317-.418.603-.418.153 0 .271.035.355.104a.753.753 0 0 1 .213.314l.844 2.35 1.172-3.238a.545.545 0 0 1 .229-.32.722.722 0 0 1 .406-.107.574.574 0 0 1 .441.196z"/></g></g><g><path fill="#EA838D" d="M364.567 257.539a1.7 1.7 0 0 1-1.699-1.699v-3.045a1.7 1.7 0 0 1 3.399 0v3.045a1.7 1.7 0 0 1-1.7 1.699zM345.504 257.539a1.7 1.7 0 0 1-1.699-1.699v-3.045c0-.936.762-1.698 1.699-1.698s1.699.763 1.699 1.698v3.045a1.7 1.7 0 0 1-1.699 1.699zM334.167 298.903a1.67 1.67 0 0 1-1.672-1.671V254.84a1.671 1.671 0 1 1 3.344 0v42.393a1.67 1.67 0 0 1-1.672 1.67zM375.834 298.903a1.671 1.671 0 0 1-1.672-1.671V254.84a1.672 1.672 0 1 1 3.343 0v42.393a1.67 1.67 0 0 1-1.671 1.67z"/><path fill="#EA838D" d="M375.834 298.903h-41.667a1.67 1.67 0 1 1 0-3.342h41.667a1.67 1.67 0 1 1 0 3.342zM375.834 263.49h-41.667c-.925 0-1.672-.347-1.672-.775s.747-.776 1.672-.776h41.667c.925 0 1.671.348 1.671.776s-.746.775-1.671.775zM375.834 253H368v4h7.834c.925 0 1.671-1.078 1.671-2s-.746-2-1.671-2z"/><g fill="#EA838D"><path d="M342 256.509V253h-7.833c-.925 0-1.672 1.078-1.672 2s.747 2 1.672 2H342c-.017 0 0-.355 0-.491zM349 253v4h12v-4h-12z"/></g><g fill="#EA838D"><path d="M347.508 277.455c.277.455.416 1.082.416 1.885v2.879a.681.681 0 0 1-.186.488c-.124.133-.281.197-.471.197s-.347-.064-.471-.197a.681.681 0 0 1-.186-.488v-2.879c0-.412-.079-.736-.236-.973-.156-.236-.432-.355-.826-.355-.408 0-.728.127-.957.377-.23.252-.346.568-.346.951v2.879a.686.686 0 0 1-.186.488c-.125.133-.281.197-.471.197s-.347-.064-.471-.197a.677.677 0 0 1-.186-.488v-2.879c0-.412-.079-.736-.236-.973-.156-.236-.432-.355-.826-.355-.408 0-.729.127-.958.377-.229.252-.345.568-.345.951v2.879a.686.686 0 0 1-.186.488.616.616 0 0 1-.471.197.613.613 0 0 1-.471-.197.678.678 0 0 1-.187-.488v-4.645c0-.195.062-.357.187-.49a.616.616 0 0 1 .471-.195c.189 0 .346.064.471.195a.694.694 0 0 1 .186.49v.18c.197-.27.447-.5.75-.691s.641-.287 1.013-.287c.919 0 1.507.412 1.763 1.236.167-.314.421-.6.76-.854a1.87 1.87 0 0 1 1.155-.383c.723 0 1.223.227 1.501.68zM354.251 281.516a2.808 2.808 0 0 1-1.078 1.107 2.95 2.95 0 0 1-1.505.395 2.94 2.94 0 0 1-1.511-.395 2.836 2.836 0 0 1-1.073-1.107c-.262-.477-.394-1.014-.394-1.613s.132-1.139.394-1.615a2.9 2.9 0 0 1 1.073-1.113 2.924 2.924 0 0 1 1.511-.398 2.891 2.891 0 0 1 2.583 1.511c.263.477.394 1.016.394 1.615s-.131 1.136-.394 1.613zm-1.144-2.598a1.687 1.687 0 0 0-.603-.67c-.251-.156-.53-.236-.837-.236s-.586.08-.838.236a1.677 1.677 0 0 0-.602.67c-.15.289-.225.617-.225.984s.074.693.225.979c.148.285.35.506.602.664.252.156.531.234.838.234s.586-.078.837-.234c.252-.158.452-.379.603-.664.148-.285.225-.611.225-.979s-.076-.695-.225-.984zM360.086 277.455c.283.455.426 1.082.426 1.885v2.879a.686.686 0 0 1-.186.488c-.125.133-.281.197-.471.197s-.348-.064-.471-.197a.677.677 0 0 1-.186-.488v-2.879c0-.412-.084-.736-.252-.973s-.457-.355-.865-.355c-.424 0-.756.127-.996.377-.24.252-.361.568-.361.951v2.879a.686.686 0 0 1-.186.488.616.616 0 0 1-.471.197.613.613 0 0 1-.471-.197.678.678 0 0 1-.187-.488v-4.645c0-.195.062-.357.187-.49a.616.616 0 0 1 .471-.195c.189 0 .346.064.471.195a.694.694 0 0 1 .186.49v.191c.197-.27.455-.502.771-.697a1.96 1.96 0 0 1 1.045-.293c.747 0 1.261.227 1.546.68zM364.709 281.785a.607.607 0 0 1 .127.4c0 .201-.107.373-.322.512a1.32 1.32 0 0 1-.729.207c-.453 0-.834-.1-1.145-.297-.311-.199-.465-.621-.465-1.266v-3.104h-.504a.585.585 0 0 1-.438-.182.617.617 0 0 1-.176-.449.6.6 0 0 1 .614-.608h.504v-.719c0-.195.064-.359.191-.49s.287-.196.477-.196c.182 0 .336.065.459.196a.683.683 0 0 1 .188.49V277h.775c.176 0 .322.061.439.18a.63.63 0 0 1 .174.451.597.597 0 0 1-.613.608h-.775v3.047c0 .158.039.271.119.344a.48.48 0 0 0 .328.105.885.885 0 0 0 .242-.045.632.632 0 0 1 .25-.055c.104 0 .196.049.28.15zM370.33 277.455c.277.455.416 1.082.416 1.885v2.879a.686.686 0 0 1-.186.488c-.125.133-.281.197-.471.197s-.348-.064-.471-.197a.677.677 0 0 1-.186-.488v-2.879c0-.412-.08-.736-.236-.973s-.432-.355-.826-.355c-.408 0-.729.127-.957.377-.23.252-.346.568-.346.951v2.879a.686.686 0 0 1-.186.488c-.125.133-.281.197-.471.197s-.348-.064-.471-.197a.677.677 0 0 1-.186-.488v-6.95a.68.68 0 0 1 .186-.489c.123-.131.281-.197.471-.197s.346.066.471.197a.688.688 0 0 1 .186.489v2.485c.197-.27.447-.5.75-.691s.641-.287 1.012-.287c.724-.001 1.224.226 1.501.679z"/></g></g><g><path fill="#FFF" d="M361.175 206.62l18.722-18.031-8.436-7.589h-20.402l-8.557 7.589 18.673 18.031z"/><path fill="#EA838D" d="M361.174 208.01l-20.144-19.452 9.648-8.558h21.166l9.521 8.563-20.191 19.447zm-17.2-19.39l17.202 16.61 17.254-16.616-7.353-6.614h-19.639l-7.464 6.62z"/><g fill="#EA838D"><path d="M343 188.396h37M343 187.396h37v2h-37z"/></g><path fill="#EA838D" d="M360.547 206.918l-6.257-19.139 3.019-7.453 1.39.563-2.813 6.945 6.087 18.617z"/><path fill="#EA838D" d="M361.971 206.923l-1.422-.477 6.241-18.615-2.811-6.942 1.39-.563 3.019 7.456z"/><path fill="#FFF" d="M348.922 208.144c-1.938 0-3.654-.641-4.967-1.853-.187-.173-.473-.413-.799-.688-.717-.601-2.052-1.719-2.285-2.203-1.248-2.588-.015-5.754 3.884-9.968 3.137-3.388 5.73-5.035 7.933-5.035.895 0 1.726.268 2.529.819.166.13 1.008 1.044 1.459 1.534.455.496.722.783.84.891 3.296 3.052 2.938 8.819-.799 12.86-2.144 2.316-4.985 3.643-7.795 3.643z"/><path fill="#EA838D" d="M352.688 189.107c.733 0 1.414.219 2.088.664.223.206.97 1.018 1.377 1.461.534.578.747.809.878.93 3.011 2.785 2.636 8.104-.837 11.854-2.01 2.172-4.657 3.415-7.271 3.415-1.756 0-3.305-.574-4.483-1.663a24.082 24.082 0 0 0-.826-.711c-.562-.471-1.878-1.575-2.102-1.966-1.089-2.26.142-5.261 3.767-9.176 2.992-3.235 5.416-4.808 7.409-4.808m0-1.422c-2.808 0-5.719 2.307-8.455 5.265-3.225 3.484-5.66 7.326-4.002 10.76.404.837 2.539 2.454 3.242 3.104 1.488 1.377 3.416 2.042 5.449 2.042 2.877 0 5.967-1.331 8.316-3.872 4.01-4.333 4.351-10.541.758-13.864-.271-.251-2.078-2.286-2.379-2.491-.953-.654-1.935-.944-2.929-.944z"/><path fill="#FFF" d="M346.398 206a7.235 7.235 0 0 1-4.966-1.949c-1.579-1.461-2.374-3.635-2.243-6.038.133-2.455 1.215-4.917 3.042-6.892 2.142-2.316 4.984-3.656 7.794-3.656 1.939 0 3.656.635 4.965 1.847 1.578 1.461 2.376 3.585 2.243 5.989-.134 2.454-1.214 4.986-3.042 6.962-2.143 2.314-4.982 3.737-7.791 3.737h-.002z"/><path fill="#EA838D" d="M350.025 188.165c1.757 0 3.305.574 4.483 1.663 1.419 1.314 2.136 3.242 2.016 5.43-.126 2.289-1.14 4.571-2.854 6.424-2.008 2.172-4.658 3.416-7.271 3.416-1.756 0-3.305-.575-4.482-1.664-1.42-1.313-2.137-3.242-2.018-5.431.127-2.289 1.141-4.569 2.855-6.423 2.009-2.17 4.656-3.415 7.271-3.415m0-1.423c-2.879 0-5.965 1.332-8.316 3.871-4.011 4.334-4.35 10.542-.759 13.865 1.487 1.376 3.415 2.041 5.448 2.041 2.879 0 5.969-1.332 8.315-3.871 4.012-4.334 4.351-10.542.761-13.864-1.488-1.375-3.416-2.042-5.449-2.042z"/><path fill="#FFF" d="M344.045 197.409c.148-.234.379-.368.688-.399a.67.67 0 0 1 .422.097c.166.105.27.292.313.56.059.432.174.796.344 1.095.172.299.439.564.805.796.635.365 1.111.295 1.434-.211.166-.262.188-.527.064-.797-.123-.269-.363-.611-.721-1.029-.367-.436-.649-.818-.847-1.146s-.308-.706-.33-1.133c-.023-.428.124-.889.439-1.387.276-.434.624-.741 1.046-.924s.865-.25 1.328-.203c.465.049.895.197 1.291.449.403.257.753.6 1.047 1.027.295.429.449.883.469 1.363a.98.98 0 0 1-.158.586.78.78 0 0 1-.551.372.66.66 0 0 1-.475-.092.642.642 0 0 1-.308-.462 1.851 1.851 0 0 0-.251-.826 1.931 1.931 0 0 0-.654-.662c-.602-.383-1.061-.325-1.376.172-.126.199-.173.395-.14.586.033.193.113.377.24.554.127.176.313.411.561.707.34.407.607.773.801 1.099.193.327.293.701.303 1.125.008.424-.145.881-.454 1.368-.282.443-.642.757-1.081.94-.438.184-.893.248-1.362.19s-.894-.206-1.274-.448a4.243 4.243 0 0 1-1.27-1.227 2.943 2.943 0 0 1-.493-1.665.84.84 0 0 1 .15-.475z"/><path fill="#EA838D" d="M344.072 201.446a.5.5 0 0 1-.354-.853l7.768-7.769a.5.5 0 0 1 .707.707l-7.768 7.769a.498.498 0 0 1-.353.146z"/><path fill="#FFF" d="M340.355 208.144c-1.938 0-3.654-.641-4.967-1.853-.188-.173-.473-.413-.799-.688-.718-.601-2.053-1.719-2.285-2.203-1.248-2.588-.016-5.754 3.883-9.968 3.137-3.388 5.73-5.035 7.934-5.035.895 0 1.726.268 2.529.819.166.13 1.008 1.044 1.458 1.534.456.496.723.783.839.891 3.297 3.052 2.94 8.819-.797 12.86-2.144 2.316-4.985 3.643-7.795 3.643z"/><path fill="#EA838D" d="M344.121 189.107c.732 0 1.414.219 2.088.664.222.206.97 1.018 1.377 1.461.534.578.748.809.877.93 3.01 2.785 2.637 8.104-.837 11.854-2.009 2.172-4.657 3.415-7.271 3.415-1.756 0-3.307-.574-4.484-1.663a23.15 23.15 0 0 0-.826-.711c-.561-.471-1.878-1.575-2.102-1.966-1.089-2.26.143-5.261 3.768-9.176 2.994-3.235 5.418-4.808 7.41-4.808m0-1.422c-2.807 0-5.719 2.307-8.455 5.265-3.225 3.484-5.66 7.326-4.003 10.76.405.837 2.54 2.454 3.243 3.104 1.488 1.377 3.416 2.042 5.449 2.042 2.877 0 5.966-1.331 8.315-3.872 4.011-4.333 4.351-10.541.759-13.864-.271-.251-2.078-2.286-2.379-2.491-.954-.654-1.935-.944-2.929-.944z"/><path fill="#FFF" d="M337.832 205.81c-1.938 0-3.656-.642-4.966-1.854-1.579-1.461-2.374-3.588-2.243-5.991.133-2.455 1.215-4.894 3.042-6.867 2.142-2.316 4.984-3.645 7.794-3.645 1.938 0 3.655.641 4.965 1.853 1.578 1.461 2.375 3.588 2.243 5.991-.134 2.455-1.214 4.894-3.042 6.869-2.143 2.314-4.982 3.644-7.793 3.644 0 0 .001 0 0 0z"/><path fill="#EA838D" d="M341.459 188.165c1.756 0 3.305.574 4.482 1.663 1.419 1.314 2.137 3.242 2.016 5.43-.126 2.289-1.139 4.571-2.854 6.424-2.008 2.172-4.658 3.416-7.271 3.416-1.756 0-3.306-.575-4.482-1.664-1.42-1.313-2.137-3.242-2.018-5.431.127-2.289 1.141-4.569 2.854-6.423 2.009-2.17 4.658-3.415 7.273-3.415m0-1.423c-2.879 0-5.965 1.332-8.316 3.871-4.011 4.334-4.351 10.542-.76 13.865 1.488 1.376 3.415 2.041 5.449 2.041 2.877 0 5.968-1.332 8.314-3.871 4.013-4.334 4.352-10.542.762-13.864-1.488-1.375-3.416-2.042-5.449-2.042z"/><path fill="#EA838D" d="M335.477 197.409c.15-.234.379-.368.689-.399a.672.672 0 0 1 .422.097c.165.105.269.292.311.56.06.431.174.796.346 1.095s.439.564.803.796c.635.365 1.113.295 1.436-.211.166-.262.188-.527.063-.797-.123-.269-.362-.611-.72-1.029a9.176 9.176 0 0 1-.848-1.146 2.417 2.417 0 0 1-.329-1.133c-.024-.428.122-.889.438-1.387.275-.434.625-.742 1.045-.924.422-.183.865-.25 1.33-.203.465.048.894.197 1.29.449.404.257.753.6 1.048 1.027.293.429.449.883.467 1.363a.973.973 0 0 1-.156.586.785.785 0 0 1-.553.372.658.658 0 0 1-.475-.093.639.639 0 0 1-.307-.461 1.862 1.862 0 0 0-.25-.826 1.94 1.94 0 0 0-.654-.662c-.602-.383-1.061-.325-1.376.172-.126.198-.174.394-.142.586.035.193.115.377.242.553s.313.412.559.708c.341.407.607.773.801 1.099.193.326.295.701.303 1.125s-.143.88-.453 1.368c-.281.442-.642.757-1.08.94a2.636 2.636 0 0 1-1.363.189 3.02 3.02 0 0 1-1.273-.447 4.235 4.235 0 0 1-1.271-1.227 2.968 2.968 0 0 1-.492-1.665.839.839 0 0 1 .149-.475z"/><g><path fill="#EA838D" d="M335.506 201.446a.5.5 0 0 1-.354-.853l7.768-7.769a.5.5 0 0 1 .707.707l-7.768 7.769a.498.498 0 0 1-.353.146z"/></g></g></svg>