<svg xmlns="http://www.w3.org/2000/svg" width="114" height="131.025"><path fill="#5D5D5D" d="M-459.243-9.68h164v165h-164zM150.757-6.68h138v140h-138z"/><g fill="#FFF"><path d="M48.739 52.273v2.81H22.288v-2.81h26.451zM42.005 35.12H25.104v-2.743h20.235v3.206c0 4 0 8.196-1.101 14.509l-3.367-.363c1.134-5.882 1.134-10.278 1.134-14.146v-.463zM72.543 43.416c-4.889.992-9.292 1.289-13.566 1.289h-2.364v-13.55h3.335v10.741c3.821-.066 7.866-.364 12.206-1.224l.389 2.744zm5.924 9.948c0 3.635-3.852 5.916-9.777 5.916-5.924 0-9.776-2.281-9.776-5.916 0-3.702 3.853-5.949 9.776-5.949 5.925 0 9.777 2.248 9.777 5.949zm-3.302 0c0-2.05-2.492-3.24-6.476-3.24-3.981 0-6.476 1.19-6.476 3.24 0 1.983 2.493 3.206 6.476 3.206 3.984 0 6.476-1.223 6.476-3.206zm3.012-16.989v3.537h4.048v2.81h-4.048v4.297h-3.368v-17.65h3.368v4.198h4.048v2.809h-4.048zM88.414 61.164c2.202-.925 3.497-2.579 3.529-4.528-.129.034-.228.034-.356.034-1.327 0-2.491-.859-2.491-2.446 0-1.487 1.164-2.445 2.59-2.445 1.813 0 2.881 1.553 2.881 4.098 0 3.471-1.976 6.147-5.311 7.437l-.842-2.15z"/></g><g fill="#FFF"><path d="M31.404 84.785c-4.176 0-7.155-2.577-7.155-6.379 0-3.768 2.979-6.346 7.155-6.346 4.145 0 7.09 2.578 7.09 6.346 0 3.802-2.946 6.379-7.09 6.379zm0-.957c3.464 0 6.022-2.38 6.022-5.422 0-3.008-2.558-5.387-6.022-5.387-3.496 0-6.087 2.379-6.087 5.387 0 3.042 2.591 5.422 6.087 5.422zm-2.428 14.706h17.483v.992h-18.52v-6.645h16.253v-4.329h-16.35v-.991h17.386v6.279H28.976v4.694zm20.915-20.722v.992h-4.662v7.14H44.16V70.839h1.069v6.974h4.662zM73.76 85.28c-5.084.794-9.001.992-13.792.992h-2.104v-7.634h11.559v-5.123H57.766v-.992h12.691v7.104H58.898v5.651h1.068c4.727 0 8.676-.197 13.663-1.023l.131 1.025zm-12.886 4.596H78.26v9.65H60.874v-9.65zm11.881.957H61.91v7.701h15.313v-7.701h-4.468m10.199-10.939H78.26v8.361h-1.068V70.839h1.068v8.064h4.694v.991z"/></g><path fill="none" stroke="#FFF" stroke-width="2" stroke-miterlimit="10" d="M1.591 1.882h111v127.09h-111z"/></svg>