<svg xmlns="http://www.w3.org/2000/svg" width="60" height="60"><path fill="none" stroke="#FFF" stroke-width="2" stroke-linecap="round" stroke-miterlimit="10" d="M21.797 29.646s0-8.338 9.099-6.437c3.937.822 5.439 5.127 5.439 8.202 0 6.698-7.84 16.133-14.538 16.133h-.223c-6.697 0-14.538-8.516-14.538-16.133 0-3.075 1.502-7.387 5.439-8.209 9.099-1.902 9.099 6.441 9.099 6.441"/><path fill="#FFF" d="M44.36 54.427c-.882 0-1.809-.022-2.771-.046-1.028-.026-2.096-.053-3.192-.053s-2.164.026-3.191.053c-.963.023-1.89.046-2.771.046-4.76 0-9.408-.574-9.408-7.449 0-5.955 3.497-14.88 8.784-19.337a12.026 12.026 0 0 1-5.442-10.067c0-6.633 5.396-12.029 12.029-12.029 6.634 0 12.029 5.396 12.029 12.029 0 4.082-2.063 7.855-5.443 10.067 5.288 4.458 8.785 13.382 8.785 19.337 0 3.04-.902 5.07-2.759 6.209-1.777 1.089-4.245 1.24-6.65 1.24.001 0 .001 0 0 0z"/><path fill="#EA838D" d="M38.397 6.211c6.274 0 11.361 5.087 11.361 11.361a11.36 11.36 0 0 1-5.949 9.992c5.439 3.995 9.29 13.205 9.29 19.413 0 5.997-3.591 6.78-8.739 6.78-1.822 0-3.84-.098-5.963-.098s-4.141.098-5.963.098c-5.148 0-8.739-.784-8.739-6.78 0-6.208 3.85-15.418 9.291-19.413a11.359 11.359 0 0 1-5.95-9.992c.001-6.274 5.087-11.361 11.361-11.361m0-1.336c-7.001 0-12.697 5.696-12.697 12.698a12.69 12.69 0 0 0 5.038 10.128c-5.07 4.742-8.379 13.414-8.379 19.276 0 7.49 5.201 8.117 10.076 8.117.887 0 1.819-.022 2.788-.047 1.021-.025 2.084-.051 3.175-.051s2.153.025 3.175.051c.968.024 1.901.047 2.788.047 4.875 0 10.076-.627 10.076-8.117 0-5.862-3.309-14.534-8.379-19.276a12.693 12.693 0 0 0 5.037-10.128c0-7.002-5.697-12.698-12.698-12.698z"/></svg>